M48
; DRILL file {KiCad 8.0.6} date 2025-01-30T10:53:08+0100
; FORMAT={-:-/ absolute / metric / decimal}
; #@! TF.CreationDate,2025-01-30T10:53:08+01:00
; #@! TF.GenerationSoftware,Kicad,Pcbnew,8.0.6
; #@! TF.FileFunction,Plated,1,2,PTH
FMAT,2
METRIC
; #@! TA.AperFunction,Plated,PTH,ViaDrill
T1C0.300
; #@! TA.AperFunction,Plated,PTH,ComponentDrill
T2C0.650
; #@! TA.AperFunction,Plated,PTH,ComponentDrill
T3C0.800
; #@! TA.AperFunction,Plated,PTH,ComponentDrill
T4C1.000
; #@! TA.AperFunction,Plated,PTH,ComponentDrill
T5C1.680
%
G90
G05
T1
X111.963Y-109.59
X116.84Y-90.286
X116.84Y-101.97
X119.635Y-108.575
X122.809Y-94.858
X122.809Y-101.335
X135.81Y-116.702
X137.535Y-94.28
X138.684Y-89.27
X139.09Y-98.16
X145.593Y-104.51
X148.133Y-93.385
X148.59Y-89.27
X148.59Y-91.302
X148.59Y-114.797
X148.59Y-117.083
X149.86Y-89.27
X149.86Y-91.302
X151.13Y-112.13
X155.346Y-104.51
X157.429Y-95.925
X157.48Y-85.714
X158.547Y-112.79
X163.83Y-95.62
X164.084Y-85.46
X164.338Y-82.92
X165.1Y-109.59
X166.37Y-108.32
X167.64Y-107.05
X168.91Y-105.78
X170.942Y-119.75
X174.498Y-101.97
X176.635Y-107.055
X177.749Y-86.73
X177.902Y-80.38
T2
X132.08Y-90.64
X132.08Y-95.52
T3
X161.29Y-117.21
X161.29Y-119.75
X163.83Y-117.21
X163.83Y-119.75
X166.37Y-117.21
X166.37Y-119.75
X168.91Y-117.21
X168.91Y-119.75
T4
X114.3Y-91.81
X114.3Y-94.35
X114.3Y-96.89
X114.3Y-99.43
X114.3Y-101.97
X114.3Y-109.59
X114.3Y-112.13
X146.05Y-109.59
X148.59Y-79.11
X148.59Y-109.59
X151.13Y-79.11
X151.13Y-109.59
X153.67Y-79.11
X164.338Y-99.684
X166.878Y-99.684
X169.418Y-99.684
X169.729Y-94.35
X170.165Y-80.38
X170.18Y-86.73
X171.958Y-99.684
X172.269Y-94.35
X172.705Y-80.38
X172.72Y-86.73
X174.498Y-99.684
X174.809Y-94.35
X175.245Y-80.38
X175.26Y-86.73
X177.038Y-99.684
T5
X123.19Y-79.744
X123.19Y-84.444
X123.19Y-89.144
M30
