G04 #@! TF.GenerationSoftware,KiCad,Pcbnew,8.0.6*
G04 #@! TF.CreationDate,2025-01-30T10:50:32+01:00*
G04 #@! TF.ProjectId,colorsorter_schematic,636f6c6f-7273-46f7-9274-65725f736368,rev?*
G04 #@! TF.SameCoordinates,Original*
G04 #@! TF.FileFunction,Paste,Top*
G04 #@! TF.FilePolarity,Positive*
%FSLAX46Y46*%
G04 Gerber Fmt 4.6, Leading zero omitted, Abs format (unit mm)*
G04 Created by KiCad (PCBNEW 8.0.6) date 2025-01-30 10:50:32*
%MOMM*%
%LPD*%
G01*
G04 APERTURE LIST*
%ADD10R,1.150000X1.400000*%
%ADD11R,1.050000X1.400000*%
%ADD12R,2.250000X2.350000*%
%ADD13R,1.470000X1.020000*%
%ADD14R,1.020000X1.470000*%
%ADD15R,1.400000X1.050000*%
%ADD16R,0.558800X1.447800*%
%ADD17R,2.350000X2.250000*%
%ADD18R,1.699999X1.300000*%
%ADD19R,5.699998X5.499999*%
%ADD20R,1.765300X0.558800*%
G04 APERTURE END LIST*
D10*
X114300000Y-79872000D03*
X116650000Y-79872000D03*
D11*
X166370000Y-112820000D03*
X164470000Y-112820000D03*
D12*
X135809995Y-109790000D03*
X135809995Y-114690000D03*
D13*
X116840000Y-88810000D03*
X116840000Y-87190000D03*
D14*
X162550850Y-85460000D03*
X160930850Y-85460000D03*
D15*
X120650000Y-96824000D03*
X120650000Y-94924000D03*
D14*
X148590000Y-104510000D03*
X146970000Y-104510000D03*
D16*
X151678900Y-104510000D03*
X154041100Y-104510000D03*
X140239750Y-98160000D03*
X142601950Y-98160000D03*
D14*
X142491200Y-95518400D03*
X140871200Y-95518400D03*
D16*
X160559750Y-95620000D03*
X162921950Y-95620000D03*
D15*
X120650000Y-99496000D03*
X120650000Y-101396000D03*
D17*
X124460000Y-117269997D03*
X129360000Y-117269997D03*
D18*
X121830000Y-108575001D03*
X121830000Y-113144999D03*
D19*
X128270000Y-110860000D03*
D14*
X175260000Y-107050000D03*
X173640000Y-107050000D03*
D20*
X146500850Y-84483700D03*
X146500850Y-85753700D03*
X146500850Y-87023700D03*
X146500850Y-88293700D03*
X146500850Y-89563700D03*
X146500850Y-90833700D03*
X146500850Y-92103700D03*
X146500850Y-93373700D03*
X146500850Y-94643700D03*
X146500850Y-95913700D03*
X146500850Y-97183700D03*
X146500850Y-98453700D03*
X146500850Y-99723700D03*
X146500850Y-100993700D03*
X155759150Y-100993700D03*
X155759150Y-99723700D03*
X155759150Y-98453700D03*
X155759150Y-97183700D03*
X155759150Y-95913700D03*
X155759150Y-94643700D03*
X155759150Y-93373700D03*
X155759150Y-92103700D03*
X155759150Y-90833700D03*
X155759150Y-89563700D03*
X155759150Y-88293700D03*
X155759150Y-87023700D03*
X155759150Y-85753700D03*
X155759150Y-84483700D03*
D13*
X139700000Y-113400000D03*
X139700000Y-111780000D03*
D16*
X160559750Y-82920000D03*
X162921950Y-82920000D03*
D14*
X127810000Y-121020000D03*
X126190000Y-121020000D03*
D13*
X138935000Y-92695000D03*
X138935000Y-94315000D03*
D14*
X159670000Y-112820000D03*
X161290000Y-112820000D03*
D13*
X137160000Y-90910000D03*
X137160000Y-89290000D03*
D15*
X114300000Y-85140000D03*
X114300000Y-83240000D03*
M02*
