G04 #@! TF.GenerationSoftware,KiCad,Pcbnew,8.0.6*
G04 #@! TF.CreationDate,2025-01-30T10:50:32+01:00*
G04 #@! TF.ProjectId,colorsorter_schematic,636f6c6f-7273-46f7-9274-65725f736368,rev?*
G04 #@! TF.SameCoordinates,Original*
G04 #@! TF.FileFunction,Legend,Bot*
G04 #@! TF.FilePolarity,Positive*
%FSLAX46Y46*%
G04 Gerber Fmt 4.6, Leading zero omitted, Abs format (unit mm)*
G04 Created by KiCad (PCBNEW 8.0.6) date 2025-01-30 10:50:32*
%MOMM*%
%LPD*%
G01*
G04 APERTURE LIST*
G04 Aperture macros list*
%AMRoundRect*
0 Rectangle with rounded corners*
0 $1 Rounding radius*
0 $2 $3 $4 $5 $6 $7 $8 $9 X,Y pos of 4 corners*
0 Add a 4 corners polygon primitive as box body*
4,1,4,$2,$3,$4,$5,$6,$7,$8,$9,$2,$3,0*
0 Add four circle primitives for the rounded corners*
1,1,$1+$1,$2,$3*
1,1,$1+$1,$4,$5*
1,1,$1+$1,$6,$7*
1,1,$1+$1,$8,$9*
0 Add four rect primitives between the rounded corners*
20,1,$1+$1,$2,$3,$4,$5,0*
20,1,$1+$1,$4,$5,$6,$7,0*
20,1,$1+$1,$6,$7,$8,$9,0*
20,1,$1+$1,$8,$9,$2,$3,0*%
G04 Aperture macros list end*
%ADD10C,0.125000*%
%ADD11R,1.700000X1.700000*%
%ADD12O,1.700000X1.700000*%
%ADD13R,2.520000X2.520000*%
%ADD14C,2.520000*%
%ADD15R,1.192000X1.192000*%
%ADD16C,1.192000*%
%ADD17RoundRect,0.102000X0.750000X0.750000X-0.750000X0.750000X-0.750000X-0.750000X0.750000X-0.750000X0*%
%ADD18C,1.704000*%
G04 APERTURE END LIST*
D10*
X153413240Y-120284048D02*
X153460859Y-120331668D01*
X153460859Y-120331668D02*
X153603716Y-120379287D01*
X153603716Y-120379287D02*
X153698954Y-120379287D01*
X153698954Y-120379287D02*
X153841811Y-120331668D01*
X153841811Y-120331668D02*
X153937049Y-120236429D01*
X153937049Y-120236429D02*
X153984668Y-120141191D01*
X153984668Y-120141191D02*
X154032287Y-119950715D01*
X154032287Y-119950715D02*
X154032287Y-119807858D01*
X154032287Y-119807858D02*
X153984668Y-119617382D01*
X153984668Y-119617382D02*
X153937049Y-119522144D01*
X153937049Y-119522144D02*
X153841811Y-119426906D01*
X153841811Y-119426906D02*
X153698954Y-119379287D01*
X153698954Y-119379287D02*
X153603716Y-119379287D01*
X153603716Y-119379287D02*
X153460859Y-119426906D01*
X153460859Y-119426906D02*
X153413240Y-119474525D01*
X152841811Y-120379287D02*
X152937049Y-120331668D01*
X152937049Y-120331668D02*
X152984668Y-120284048D01*
X152984668Y-120284048D02*
X153032287Y-120188810D01*
X153032287Y-120188810D02*
X153032287Y-119903096D01*
X153032287Y-119903096D02*
X152984668Y-119807858D01*
X152984668Y-119807858D02*
X152937049Y-119760239D01*
X152937049Y-119760239D02*
X152841811Y-119712620D01*
X152841811Y-119712620D02*
X152698954Y-119712620D01*
X152698954Y-119712620D02*
X152603716Y-119760239D01*
X152603716Y-119760239D02*
X152556097Y-119807858D01*
X152556097Y-119807858D02*
X152508478Y-119903096D01*
X152508478Y-119903096D02*
X152508478Y-120188810D01*
X152508478Y-120188810D02*
X152556097Y-120284048D01*
X152556097Y-120284048D02*
X152603716Y-120331668D01*
X152603716Y-120331668D02*
X152698954Y-120379287D01*
X152698954Y-120379287D02*
X152841811Y-120379287D01*
X151937049Y-120379287D02*
X152032287Y-120331668D01*
X152032287Y-120331668D02*
X152079906Y-120236429D01*
X152079906Y-120236429D02*
X152079906Y-119379287D01*
X151413239Y-120379287D02*
X151508477Y-120331668D01*
X151508477Y-120331668D02*
X151556096Y-120284048D01*
X151556096Y-120284048D02*
X151603715Y-120188810D01*
X151603715Y-120188810D02*
X151603715Y-119903096D01*
X151603715Y-119903096D02*
X151556096Y-119807858D01*
X151556096Y-119807858D02*
X151508477Y-119760239D01*
X151508477Y-119760239D02*
X151413239Y-119712620D01*
X151413239Y-119712620D02*
X151270382Y-119712620D01*
X151270382Y-119712620D02*
X151175144Y-119760239D01*
X151175144Y-119760239D02*
X151127525Y-119807858D01*
X151127525Y-119807858D02*
X151079906Y-119903096D01*
X151079906Y-119903096D02*
X151079906Y-120188810D01*
X151079906Y-120188810D02*
X151127525Y-120284048D01*
X151127525Y-120284048D02*
X151175144Y-120331668D01*
X151175144Y-120331668D02*
X151270382Y-120379287D01*
X151270382Y-120379287D02*
X151413239Y-120379287D01*
X150651334Y-120379287D02*
X150651334Y-119712620D01*
X150651334Y-119903096D02*
X150603715Y-119807858D01*
X150603715Y-119807858D02*
X150556096Y-119760239D01*
X150556096Y-119760239D02*
X150460858Y-119712620D01*
X150460858Y-119712620D02*
X150365620Y-119712620D01*
X150079905Y-120331668D02*
X149937048Y-120379287D01*
X149937048Y-120379287D02*
X149698953Y-120379287D01*
X149698953Y-120379287D02*
X149603715Y-120331668D01*
X149603715Y-120331668D02*
X149556096Y-120284048D01*
X149556096Y-120284048D02*
X149508477Y-120188810D01*
X149508477Y-120188810D02*
X149508477Y-120093572D01*
X149508477Y-120093572D02*
X149556096Y-119998334D01*
X149556096Y-119998334D02*
X149603715Y-119950715D01*
X149603715Y-119950715D02*
X149698953Y-119903096D01*
X149698953Y-119903096D02*
X149889429Y-119855477D01*
X149889429Y-119855477D02*
X149984667Y-119807858D01*
X149984667Y-119807858D02*
X150032286Y-119760239D01*
X150032286Y-119760239D02*
X150079905Y-119665001D01*
X150079905Y-119665001D02*
X150079905Y-119569763D01*
X150079905Y-119569763D02*
X150032286Y-119474525D01*
X150032286Y-119474525D02*
X149984667Y-119426906D01*
X149984667Y-119426906D02*
X149889429Y-119379287D01*
X149889429Y-119379287D02*
X149651334Y-119379287D01*
X149651334Y-119379287D02*
X149508477Y-119426906D01*
X148937048Y-120379287D02*
X149032286Y-120331668D01*
X149032286Y-120331668D02*
X149079905Y-120284048D01*
X149079905Y-120284048D02*
X149127524Y-120188810D01*
X149127524Y-120188810D02*
X149127524Y-119903096D01*
X149127524Y-119903096D02*
X149079905Y-119807858D01*
X149079905Y-119807858D02*
X149032286Y-119760239D01*
X149032286Y-119760239D02*
X148937048Y-119712620D01*
X148937048Y-119712620D02*
X148794191Y-119712620D01*
X148794191Y-119712620D02*
X148698953Y-119760239D01*
X148698953Y-119760239D02*
X148651334Y-119807858D01*
X148651334Y-119807858D02*
X148603715Y-119903096D01*
X148603715Y-119903096D02*
X148603715Y-120188810D01*
X148603715Y-120188810D02*
X148651334Y-120284048D01*
X148651334Y-120284048D02*
X148698953Y-120331668D01*
X148698953Y-120331668D02*
X148794191Y-120379287D01*
X148794191Y-120379287D02*
X148937048Y-120379287D01*
X148175143Y-120379287D02*
X148175143Y-119712620D01*
X148175143Y-119903096D02*
X148127524Y-119807858D01*
X148127524Y-119807858D02*
X148079905Y-119760239D01*
X148079905Y-119760239D02*
X147984667Y-119712620D01*
X147984667Y-119712620D02*
X147889429Y-119712620D01*
X147698952Y-119712620D02*
X147318000Y-119712620D01*
X147556095Y-119379287D02*
X147556095Y-120236429D01*
X147556095Y-120236429D02*
X147508476Y-120331668D01*
X147508476Y-120331668D02*
X147413238Y-120379287D01*
X147413238Y-120379287D02*
X147318000Y-120379287D01*
X146603714Y-120331668D02*
X146698952Y-120379287D01*
X146698952Y-120379287D02*
X146889428Y-120379287D01*
X146889428Y-120379287D02*
X146984666Y-120331668D01*
X146984666Y-120331668D02*
X147032285Y-120236429D01*
X147032285Y-120236429D02*
X147032285Y-119855477D01*
X147032285Y-119855477D02*
X146984666Y-119760239D01*
X146984666Y-119760239D02*
X146889428Y-119712620D01*
X146889428Y-119712620D02*
X146698952Y-119712620D01*
X146698952Y-119712620D02*
X146603714Y-119760239D01*
X146603714Y-119760239D02*
X146556095Y-119855477D01*
X146556095Y-119855477D02*
X146556095Y-119950715D01*
X146556095Y-119950715D02*
X147032285Y-120045953D01*
X146127523Y-120379287D02*
X146127523Y-119712620D01*
X146127523Y-119903096D02*
X146079904Y-119807858D01*
X146079904Y-119807858D02*
X146032285Y-119760239D01*
X146032285Y-119760239D02*
X145937047Y-119712620D01*
X145937047Y-119712620D02*
X145841809Y-119712620D01*
X145746571Y-120474525D02*
X144984666Y-120474525D01*
X144413237Y-119855477D02*
X144270380Y-119903096D01*
X144270380Y-119903096D02*
X144222761Y-119950715D01*
X144222761Y-119950715D02*
X144175142Y-120045953D01*
X144175142Y-120045953D02*
X144175142Y-120188810D01*
X144175142Y-120188810D02*
X144222761Y-120284048D01*
X144222761Y-120284048D02*
X144270380Y-120331668D01*
X144270380Y-120331668D02*
X144365618Y-120379287D01*
X144365618Y-120379287D02*
X144746570Y-120379287D01*
X144746570Y-120379287D02*
X144746570Y-119379287D01*
X144746570Y-119379287D02*
X144413237Y-119379287D01*
X144413237Y-119379287D02*
X144317999Y-119426906D01*
X144317999Y-119426906D02*
X144270380Y-119474525D01*
X144270380Y-119474525D02*
X144222761Y-119569763D01*
X144222761Y-119569763D02*
X144222761Y-119665001D01*
X144222761Y-119665001D02*
X144270380Y-119760239D01*
X144270380Y-119760239D02*
X144317999Y-119807858D01*
X144317999Y-119807858D02*
X144413237Y-119855477D01*
X144413237Y-119855477D02*
X144746570Y-119855477D01*
X143746570Y-120284048D02*
X143698951Y-120331668D01*
X143698951Y-120331668D02*
X143746570Y-120379287D01*
X143746570Y-120379287D02*
X143794189Y-120331668D01*
X143794189Y-120331668D02*
X143746570Y-120284048D01*
X143746570Y-120284048D02*
X143746570Y-120379287D01*
X143746570Y-119760239D02*
X143698951Y-119807858D01*
X143698951Y-119807858D02*
X143746570Y-119855477D01*
X143746570Y-119855477D02*
X143794189Y-119807858D01*
X143794189Y-119807858D02*
X143746570Y-119760239D01*
X143746570Y-119760239D02*
X143746570Y-119855477D01*
X153984668Y-121989231D02*
X153984668Y-120989231D01*
X153984668Y-120989231D02*
X153413240Y-121989231D01*
X153413240Y-121989231D02*
X153413240Y-120989231D01*
X152508478Y-121989231D02*
X152508478Y-121465421D01*
X152508478Y-121465421D02*
X152556097Y-121370183D01*
X152556097Y-121370183D02*
X152651335Y-121322564D01*
X152651335Y-121322564D02*
X152841811Y-121322564D01*
X152841811Y-121322564D02*
X152937049Y-121370183D01*
X152508478Y-121941612D02*
X152603716Y-121989231D01*
X152603716Y-121989231D02*
X152841811Y-121989231D01*
X152841811Y-121989231D02*
X152937049Y-121941612D01*
X152937049Y-121941612D02*
X152984668Y-121846373D01*
X152984668Y-121846373D02*
X152984668Y-121751135D01*
X152984668Y-121751135D02*
X152937049Y-121655897D01*
X152937049Y-121655897D02*
X152841811Y-121608278D01*
X152841811Y-121608278D02*
X152603716Y-121608278D01*
X152603716Y-121608278D02*
X152508478Y-121560659D01*
X152175144Y-121322564D02*
X151794192Y-121322564D01*
X152032287Y-120989231D02*
X152032287Y-121846373D01*
X152032287Y-121846373D02*
X151984668Y-121941612D01*
X151984668Y-121941612D02*
X151889430Y-121989231D01*
X151889430Y-121989231D02*
X151794192Y-121989231D01*
X151032287Y-121989231D02*
X151032287Y-121465421D01*
X151032287Y-121465421D02*
X151079906Y-121370183D01*
X151079906Y-121370183D02*
X151175144Y-121322564D01*
X151175144Y-121322564D02*
X151365620Y-121322564D01*
X151365620Y-121322564D02*
X151460858Y-121370183D01*
X151032287Y-121941612D02*
X151127525Y-121989231D01*
X151127525Y-121989231D02*
X151365620Y-121989231D01*
X151365620Y-121989231D02*
X151460858Y-121941612D01*
X151460858Y-121941612D02*
X151508477Y-121846373D01*
X151508477Y-121846373D02*
X151508477Y-121751135D01*
X151508477Y-121751135D02*
X151460858Y-121655897D01*
X151460858Y-121655897D02*
X151365620Y-121608278D01*
X151365620Y-121608278D02*
X151127525Y-121608278D01*
X151127525Y-121608278D02*
X151032287Y-121560659D01*
X150603715Y-121941612D02*
X150508477Y-121989231D01*
X150508477Y-121989231D02*
X150318001Y-121989231D01*
X150318001Y-121989231D02*
X150222763Y-121941612D01*
X150222763Y-121941612D02*
X150175144Y-121846373D01*
X150175144Y-121846373D02*
X150175144Y-121798754D01*
X150175144Y-121798754D02*
X150222763Y-121703516D01*
X150222763Y-121703516D02*
X150318001Y-121655897D01*
X150318001Y-121655897D02*
X150460858Y-121655897D01*
X150460858Y-121655897D02*
X150556096Y-121608278D01*
X150556096Y-121608278D02*
X150603715Y-121513040D01*
X150603715Y-121513040D02*
X150603715Y-121465421D01*
X150603715Y-121465421D02*
X150556096Y-121370183D01*
X150556096Y-121370183D02*
X150460858Y-121322564D01*
X150460858Y-121322564D02*
X150318001Y-121322564D01*
X150318001Y-121322564D02*
X150222763Y-121370183D01*
X150603715Y-120941612D02*
X150413239Y-121084469D01*
X150413239Y-121084469D02*
X150222763Y-120941612D01*
X149318001Y-121989231D02*
X149318001Y-121465421D01*
X149318001Y-121465421D02*
X149365620Y-121370183D01*
X149365620Y-121370183D02*
X149460858Y-121322564D01*
X149460858Y-121322564D02*
X149651334Y-121322564D01*
X149651334Y-121322564D02*
X149746572Y-121370183D01*
X149318001Y-121941612D02*
X149413239Y-121989231D01*
X149413239Y-121989231D02*
X149651334Y-121989231D01*
X149651334Y-121989231D02*
X149746572Y-121941612D01*
X149746572Y-121941612D02*
X149794191Y-121846373D01*
X149794191Y-121846373D02*
X149794191Y-121751135D01*
X149794191Y-121751135D02*
X149746572Y-121655897D01*
X149746572Y-121655897D02*
X149651334Y-121608278D01*
X149651334Y-121608278D02*
X149413239Y-121608278D01*
X149413239Y-121608278D02*
X149318001Y-121560659D01*
X148079905Y-121989231D02*
X148079905Y-120989231D01*
X148079905Y-120989231D02*
X147746572Y-121703516D01*
X147746572Y-121703516D02*
X147413239Y-120989231D01*
X147413239Y-120989231D02*
X147413239Y-121989231D01*
X146937048Y-121989231D02*
X146937048Y-121322564D01*
X146937048Y-120989231D02*
X146984667Y-121036850D01*
X146984667Y-121036850D02*
X146937048Y-121084469D01*
X146937048Y-121084469D02*
X146889429Y-121036850D01*
X146889429Y-121036850D02*
X146937048Y-120989231D01*
X146937048Y-120989231D02*
X146937048Y-121084469D01*
X146318001Y-121989231D02*
X146413239Y-121941612D01*
X146413239Y-121941612D02*
X146460858Y-121846373D01*
X146460858Y-121846373D02*
X146460858Y-120989231D01*
X145937048Y-121322564D02*
X145937048Y-122179707D01*
X145937048Y-122179707D02*
X145984667Y-122274945D01*
X145984667Y-122274945D02*
X146079905Y-122322564D01*
X146079905Y-122322564D02*
X146127524Y-122322564D01*
X145937048Y-120989231D02*
X145984667Y-121036850D01*
X145984667Y-121036850D02*
X145937048Y-121084469D01*
X145937048Y-121084469D02*
X145889429Y-121036850D01*
X145889429Y-121036850D02*
X145937048Y-120989231D01*
X145937048Y-120989231D02*
X145937048Y-121084469D01*
X145079906Y-121941612D02*
X145175144Y-121989231D01*
X145175144Y-121989231D02*
X145365620Y-121989231D01*
X145365620Y-121989231D02*
X145460858Y-121941612D01*
X145460858Y-121941612D02*
X145508477Y-121846373D01*
X145508477Y-121846373D02*
X145508477Y-121465421D01*
X145508477Y-121465421D02*
X145460858Y-121370183D01*
X145460858Y-121370183D02*
X145365620Y-121322564D01*
X145365620Y-121322564D02*
X145175144Y-121322564D01*
X145175144Y-121322564D02*
X145079906Y-121370183D01*
X145079906Y-121370183D02*
X145032287Y-121465421D01*
X145032287Y-121465421D02*
X145032287Y-121560659D01*
X145032287Y-121560659D02*
X145508477Y-121655897D01*
X144698953Y-121322564D02*
X144460858Y-121989231D01*
X144460858Y-121989231D02*
X144222763Y-121322564D01*
X143841810Y-121989231D02*
X143841810Y-121322564D01*
X143841810Y-120989231D02*
X143889429Y-121036850D01*
X143889429Y-121036850D02*
X143841810Y-121084469D01*
X143841810Y-121084469D02*
X143794191Y-121036850D01*
X143794191Y-121036850D02*
X143841810Y-120989231D01*
X143841810Y-120989231D02*
X143841810Y-121084469D01*
X142937049Y-121941612D02*
X143032287Y-121989231D01*
X143032287Y-121989231D02*
X143222763Y-121989231D01*
X143222763Y-121989231D02*
X143318001Y-121941612D01*
X143318001Y-121941612D02*
X143365620Y-121893992D01*
X143365620Y-121893992D02*
X143413239Y-121798754D01*
X143413239Y-121798754D02*
X143413239Y-121513040D01*
X143413239Y-121513040D02*
X143365620Y-121417802D01*
X143365620Y-121417802D02*
X143318001Y-121370183D01*
X143318001Y-121370183D02*
X143222763Y-121322564D01*
X143222763Y-121322564D02*
X143032287Y-121322564D01*
X143032287Y-121322564D02*
X142937049Y-121370183D01*
X143032287Y-120941612D02*
X143175144Y-121084469D01*
X153413240Y-123599175D02*
X153746573Y-123122984D01*
X153984668Y-123599175D02*
X153984668Y-122599175D01*
X153984668Y-122599175D02*
X153603716Y-122599175D01*
X153603716Y-122599175D02*
X153508478Y-122646794D01*
X153508478Y-122646794D02*
X153460859Y-122694413D01*
X153460859Y-122694413D02*
X153413240Y-122789651D01*
X153413240Y-122789651D02*
X153413240Y-122932508D01*
X153413240Y-122932508D02*
X153460859Y-123027746D01*
X153460859Y-123027746D02*
X153508478Y-123075365D01*
X153508478Y-123075365D02*
X153603716Y-123122984D01*
X153603716Y-123122984D02*
X153984668Y-123122984D01*
X152556097Y-123599175D02*
X152556097Y-123075365D01*
X152556097Y-123075365D02*
X152603716Y-122980127D01*
X152603716Y-122980127D02*
X152698954Y-122932508D01*
X152698954Y-122932508D02*
X152889430Y-122932508D01*
X152889430Y-122932508D02*
X152984668Y-122980127D01*
X152556097Y-123551556D02*
X152651335Y-123599175D01*
X152651335Y-123599175D02*
X152889430Y-123599175D01*
X152889430Y-123599175D02*
X152984668Y-123551556D01*
X152984668Y-123551556D02*
X153032287Y-123456317D01*
X153032287Y-123456317D02*
X153032287Y-123361079D01*
X153032287Y-123361079D02*
X152984668Y-123265841D01*
X152984668Y-123265841D02*
X152889430Y-123218222D01*
X152889430Y-123218222D02*
X152651335Y-123218222D01*
X152651335Y-123218222D02*
X152556097Y-123170603D01*
X152079906Y-122932508D02*
X152079906Y-123599175D01*
X152079906Y-123027746D02*
X152032287Y-122980127D01*
X152032287Y-122980127D02*
X151937049Y-122932508D01*
X151937049Y-122932508D02*
X151794192Y-122932508D01*
X151794192Y-122932508D02*
X151698954Y-122980127D01*
X151698954Y-122980127D02*
X151651335Y-123075365D01*
X151651335Y-123075365D02*
X151651335Y-123599175D01*
X151175144Y-123599175D02*
X151175144Y-122599175D01*
X151079906Y-123218222D02*
X150794192Y-123599175D01*
X150794192Y-122932508D02*
X151175144Y-123313460D01*
X150222763Y-123599175D02*
X150318001Y-123551556D01*
X150318001Y-123551556D02*
X150365620Y-123503936D01*
X150365620Y-123503936D02*
X150413239Y-123408698D01*
X150413239Y-123408698D02*
X150413239Y-123122984D01*
X150413239Y-123122984D02*
X150365620Y-123027746D01*
X150365620Y-123027746D02*
X150318001Y-122980127D01*
X150318001Y-122980127D02*
X150222763Y-122932508D01*
X150222763Y-122932508D02*
X150079906Y-122932508D01*
X150079906Y-122932508D02*
X149984668Y-122980127D01*
X149984668Y-122980127D02*
X149937049Y-123027746D01*
X149937049Y-123027746D02*
X149889430Y-123122984D01*
X149889430Y-123122984D02*
X149889430Y-123408698D01*
X149889430Y-123408698D02*
X149937049Y-123503936D01*
X149937049Y-123503936D02*
X149984668Y-123551556D01*
X149984668Y-123551556D02*
X150079906Y-123599175D01*
X150079906Y-123599175D02*
X150222763Y-123599175D01*
X148698953Y-123599175D02*
X148698953Y-122599175D01*
X148698953Y-122599175D02*
X148365620Y-123313460D01*
X148365620Y-123313460D02*
X148032287Y-122599175D01*
X148032287Y-122599175D02*
X148032287Y-123599175D01*
X147556096Y-123599175D02*
X147556096Y-122932508D01*
X147556096Y-122599175D02*
X147603715Y-122646794D01*
X147603715Y-122646794D02*
X147556096Y-122694413D01*
X147556096Y-122694413D02*
X147508477Y-122646794D01*
X147508477Y-122646794D02*
X147556096Y-122599175D01*
X147556096Y-122599175D02*
X147556096Y-122694413D01*
X147079906Y-123599175D02*
X147079906Y-122932508D01*
X147079906Y-123122984D02*
X147032287Y-123027746D01*
X147032287Y-123027746D02*
X146984668Y-122980127D01*
X146984668Y-122980127D02*
X146889430Y-122932508D01*
X146889430Y-122932508D02*
X146794192Y-122932508D01*
X146318001Y-123599175D02*
X146413239Y-123551556D01*
X146413239Y-123551556D02*
X146460858Y-123503936D01*
X146460858Y-123503936D02*
X146508477Y-123408698D01*
X146508477Y-123408698D02*
X146508477Y-123122984D01*
X146508477Y-123122984D02*
X146460858Y-123027746D01*
X146460858Y-123027746D02*
X146413239Y-122980127D01*
X146413239Y-122980127D02*
X146318001Y-122932508D01*
X146318001Y-122932508D02*
X146175144Y-122932508D01*
X146175144Y-122932508D02*
X146079906Y-122980127D01*
X146079906Y-122980127D02*
X146032287Y-123027746D01*
X146032287Y-123027746D02*
X145984668Y-123122984D01*
X145984668Y-123122984D02*
X145984668Y-123408698D01*
X145984668Y-123408698D02*
X146032287Y-123503936D01*
X146032287Y-123503936D02*
X146079906Y-123551556D01*
X146079906Y-123551556D02*
X146175144Y-123599175D01*
X146175144Y-123599175D02*
X146318001Y-123599175D01*
X145603715Y-123551556D02*
X145508477Y-123599175D01*
X145508477Y-123599175D02*
X145318001Y-123599175D01*
X145318001Y-123599175D02*
X145222763Y-123551556D01*
X145222763Y-123551556D02*
X145175144Y-123456317D01*
X145175144Y-123456317D02*
X145175144Y-123408698D01*
X145175144Y-123408698D02*
X145222763Y-123313460D01*
X145222763Y-123313460D02*
X145318001Y-123265841D01*
X145318001Y-123265841D02*
X145460858Y-123265841D01*
X145460858Y-123265841D02*
X145556096Y-123218222D01*
X145556096Y-123218222D02*
X145603715Y-123122984D01*
X145603715Y-123122984D02*
X145603715Y-123075365D01*
X145603715Y-123075365D02*
X145556096Y-122980127D01*
X145556096Y-122980127D02*
X145460858Y-122932508D01*
X145460858Y-122932508D02*
X145318001Y-122932508D01*
X145318001Y-122932508D02*
X145222763Y-122980127D01*
X144318001Y-123599175D02*
X144318001Y-123075365D01*
X144318001Y-123075365D02*
X144365620Y-122980127D01*
X144365620Y-122980127D02*
X144460858Y-122932508D01*
X144460858Y-122932508D02*
X144651334Y-122932508D01*
X144651334Y-122932508D02*
X144746572Y-122980127D01*
X144318001Y-123551556D02*
X144413239Y-123599175D01*
X144413239Y-123599175D02*
X144651334Y-123599175D01*
X144651334Y-123599175D02*
X144746572Y-123551556D01*
X144746572Y-123551556D02*
X144794191Y-123456317D01*
X144794191Y-123456317D02*
X144794191Y-123361079D01*
X144794191Y-123361079D02*
X144746572Y-123265841D01*
X144746572Y-123265841D02*
X144651334Y-123218222D01*
X144651334Y-123218222D02*
X144413239Y-123218222D01*
X144413239Y-123218222D02*
X144318001Y-123170603D01*
X143937048Y-122932508D02*
X143698953Y-123599175D01*
X143698953Y-123599175D02*
X143460858Y-122932508D01*
X153984668Y-125209119D02*
X153984668Y-124209119D01*
X153984668Y-124209119D02*
X153746573Y-124209119D01*
X153746573Y-124209119D02*
X153603716Y-124256738D01*
X153603716Y-124256738D02*
X153508478Y-124351976D01*
X153508478Y-124351976D02*
X153460859Y-124447214D01*
X153460859Y-124447214D02*
X153413240Y-124637690D01*
X153413240Y-124637690D02*
X153413240Y-124780547D01*
X153413240Y-124780547D02*
X153460859Y-124971023D01*
X153460859Y-124971023D02*
X153508478Y-125066261D01*
X153508478Y-125066261D02*
X153603716Y-125161500D01*
X153603716Y-125161500D02*
X153746573Y-125209119D01*
X153746573Y-125209119D02*
X153984668Y-125209119D01*
X152556097Y-125209119D02*
X152556097Y-124685309D01*
X152556097Y-124685309D02*
X152603716Y-124590071D01*
X152603716Y-124590071D02*
X152698954Y-124542452D01*
X152698954Y-124542452D02*
X152889430Y-124542452D01*
X152889430Y-124542452D02*
X152984668Y-124590071D01*
X152556097Y-125161500D02*
X152651335Y-125209119D01*
X152651335Y-125209119D02*
X152889430Y-125209119D01*
X152889430Y-125209119D02*
X152984668Y-125161500D01*
X152984668Y-125161500D02*
X153032287Y-125066261D01*
X153032287Y-125066261D02*
X153032287Y-124971023D01*
X153032287Y-124971023D02*
X152984668Y-124875785D01*
X152984668Y-124875785D02*
X152889430Y-124828166D01*
X152889430Y-124828166D02*
X152651335Y-124828166D01*
X152651335Y-124828166D02*
X152556097Y-124780547D01*
X152079906Y-124542452D02*
X152079906Y-125209119D01*
X152079906Y-124637690D02*
X152032287Y-124590071D01*
X152032287Y-124590071D02*
X151937049Y-124542452D01*
X151937049Y-124542452D02*
X151794192Y-124542452D01*
X151794192Y-124542452D02*
X151698954Y-124590071D01*
X151698954Y-124590071D02*
X151651335Y-124685309D01*
X151651335Y-124685309D02*
X151651335Y-125209119D01*
X151175144Y-125209119D02*
X151175144Y-124542452D01*
X151175144Y-124209119D02*
X151222763Y-124256738D01*
X151222763Y-124256738D02*
X151175144Y-124304357D01*
X151175144Y-124304357D02*
X151127525Y-124256738D01*
X151127525Y-124256738D02*
X151175144Y-124209119D01*
X151175144Y-124209119D02*
X151175144Y-124304357D01*
X150556097Y-125209119D02*
X150651335Y-125161500D01*
X150651335Y-125161500D02*
X150698954Y-125066261D01*
X150698954Y-125066261D02*
X150698954Y-124209119D01*
X150032287Y-125209119D02*
X150127525Y-125161500D01*
X150127525Y-125161500D02*
X150175144Y-125113880D01*
X150175144Y-125113880D02*
X150222763Y-125018642D01*
X150222763Y-125018642D02*
X150222763Y-124732928D01*
X150222763Y-124732928D02*
X150175144Y-124637690D01*
X150175144Y-124637690D02*
X150127525Y-124590071D01*
X150127525Y-124590071D02*
X150032287Y-124542452D01*
X150032287Y-124542452D02*
X149889430Y-124542452D01*
X149889430Y-124542452D02*
X149794192Y-124590071D01*
X149794192Y-124590071D02*
X149746573Y-124637690D01*
X149746573Y-124637690D02*
X149698954Y-124732928D01*
X149698954Y-124732928D02*
X149698954Y-125018642D01*
X149698954Y-125018642D02*
X149746573Y-125113880D01*
X149746573Y-125113880D02*
X149794192Y-125161500D01*
X149794192Y-125161500D02*
X149889430Y-125209119D01*
X149889430Y-125209119D02*
X150032287Y-125209119D01*
X147937049Y-125113880D02*
X147984668Y-125161500D01*
X147984668Y-125161500D02*
X148127525Y-125209119D01*
X148127525Y-125209119D02*
X148222763Y-125209119D01*
X148222763Y-125209119D02*
X148365620Y-125161500D01*
X148365620Y-125161500D02*
X148460858Y-125066261D01*
X148460858Y-125066261D02*
X148508477Y-124971023D01*
X148508477Y-124971023D02*
X148556096Y-124780547D01*
X148556096Y-124780547D02*
X148556096Y-124637690D01*
X148556096Y-124637690D02*
X148508477Y-124447214D01*
X148508477Y-124447214D02*
X148460858Y-124351976D01*
X148460858Y-124351976D02*
X148365620Y-124256738D01*
X148365620Y-124256738D02*
X148222763Y-124209119D01*
X148222763Y-124209119D02*
X148127525Y-124209119D01*
X148127525Y-124209119D02*
X147984668Y-124256738D01*
X147984668Y-124256738D02*
X147937049Y-124304357D01*
X148365620Y-123828166D02*
X148175144Y-123971023D01*
X148175144Y-123971023D02*
X147984668Y-123828166D01*
X147508477Y-125209119D02*
X147508477Y-124542452D01*
X147508477Y-124209119D02*
X147556096Y-124256738D01*
X147556096Y-124256738D02*
X147508477Y-124304357D01*
X147508477Y-124304357D02*
X147460858Y-124256738D01*
X147460858Y-124256738D02*
X147508477Y-124209119D01*
X147508477Y-124209119D02*
X147508477Y-124304357D01*
X146603716Y-125161500D02*
X146698954Y-125209119D01*
X146698954Y-125209119D02*
X146889430Y-125209119D01*
X146889430Y-125209119D02*
X146984668Y-125161500D01*
X146984668Y-125161500D02*
X147032287Y-125113880D01*
X147032287Y-125113880D02*
X147079906Y-125018642D01*
X147079906Y-125018642D02*
X147079906Y-124732928D01*
X147079906Y-124732928D02*
X147032287Y-124637690D01*
X147032287Y-124637690D02*
X146984668Y-124590071D01*
X146984668Y-124590071D02*
X146889430Y-124542452D01*
X146889430Y-124542452D02*
X146698954Y-124542452D01*
X146698954Y-124542452D02*
X146603716Y-124590071D01*
X146984668Y-124161500D02*
X146794192Y-124304357D01*
X146794192Y-124304357D02*
X146603716Y-124161500D01*
X145746573Y-125209119D02*
X145746573Y-124685309D01*
X145746573Y-124685309D02*
X145794192Y-124590071D01*
X145794192Y-124590071D02*
X145889430Y-124542452D01*
X145889430Y-124542452D02*
X146079906Y-124542452D01*
X146079906Y-124542452D02*
X146175144Y-124590071D01*
X145746573Y-125161500D02*
X145841811Y-125209119D01*
X145841811Y-125209119D02*
X146079906Y-125209119D01*
X146079906Y-125209119D02*
X146175144Y-125161500D01*
X146175144Y-125161500D02*
X146222763Y-125066261D01*
X146222763Y-125066261D02*
X146222763Y-124971023D01*
X146222763Y-124971023D02*
X146175144Y-124875785D01*
X146175144Y-124875785D02*
X146079906Y-124828166D01*
X146079906Y-124828166D02*
X145841811Y-124828166D01*
X145841811Y-124828166D02*
X145746573Y-124780547D01*
%LPC*%
D11*
X164338000Y-99684000D03*
D12*
X166878000Y-99684000D03*
X169418000Y-99684000D03*
X171958000Y-99684000D03*
X174498000Y-99684000D03*
X177038000Y-99684000D03*
D13*
X123190000Y-79744000D03*
D14*
X123190000Y-84444000D03*
X123190000Y-89144000D03*
D11*
X174809150Y-94350000D03*
D12*
X172269150Y-94350000D03*
X169729150Y-94350000D03*
D11*
X114300000Y-112130000D03*
D12*
X114300000Y-109590000D03*
D15*
X132080000Y-95520000D03*
D16*
X132080000Y-90640000D03*
D17*
X168910000Y-119750000D03*
D18*
X166370000Y-119750000D03*
X163830000Y-119750000D03*
X161290000Y-119750000D03*
X168910000Y-117210000D03*
X166370000Y-117210000D03*
X163830000Y-117210000D03*
X161290000Y-117210000D03*
D11*
X175260000Y-86730000D03*
D12*
X172720000Y-86730000D03*
X170180000Y-86730000D03*
D11*
X114300000Y-91810000D03*
D12*
X114300000Y-94350000D03*
X114300000Y-96890000D03*
X114300000Y-99430000D03*
X114300000Y-101970000D03*
D11*
X151130000Y-109590000D03*
D12*
X148590000Y-109590000D03*
X146050000Y-109590000D03*
D11*
X148590000Y-79110000D03*
D12*
X151130000Y-79110000D03*
X153670000Y-79110000D03*
D11*
X175245000Y-80380000D03*
D12*
X172705000Y-80380000D03*
X170165000Y-80380000D03*
%LPD*%
M02*
