G04 #@! TF.GenerationSoftware,KiCad,Pcbnew,8.0.6*
G04 #@! TF.CreationDate,2025-01-30T10:50:32+01:00*
G04 #@! TF.ProjectId,colorsorter_schematic,636f6c6f-7273-46f7-9274-65725f736368,rev?*
G04 #@! TF.SameCoordinates,Original*
G04 #@! TF.FileFunction,Copper,L2,Bot*
G04 #@! TF.FilePolarity,Positive*
%FSLAX46Y46*%
G04 Gerber Fmt 4.6, Leading zero omitted, Abs format (unit mm)*
G04 Created by KiCad (PCBNEW 8.0.6) date 2025-01-30 10:50:32*
%MOMM*%
%LPD*%
G01*
G04 APERTURE LIST*
G04 #@! TA.AperFunction,ComponentPad*
%ADD10R,1.700000X1.700000*%
G04 #@! TD*
G04 #@! TA.AperFunction,ComponentPad*
%ADD11O,1.700000X1.700000*%
G04 #@! TD*
G04 #@! TA.AperFunction,ComponentPad*
%ADD12R,2.520000X2.520000*%
G04 #@! TD*
G04 #@! TA.AperFunction,ComponentPad*
%ADD13C,2.520000*%
G04 #@! TD*
G04 #@! TA.AperFunction,ComponentPad*
%ADD14R,1.192000X1.192000*%
G04 #@! TD*
G04 #@! TA.AperFunction,ComponentPad*
%ADD15C,1.192000*%
G04 #@! TD*
G04 #@! TA.AperFunction,ComponentPad*
%ADD16R,1.500000X1.500000*%
G04 #@! TD*
G04 #@! TA.AperFunction,ComponentPad*
%ADD17C,1.500000*%
G04 #@! TD*
G04 #@! TA.AperFunction,ViaPad*
%ADD18C,0.700000*%
G04 #@! TD*
G04 #@! TA.AperFunction,Conductor*
%ADD19C,0.500000*%
G04 #@! TD*
G04 #@! TA.AperFunction,Conductor*
%ADD20C,0.300000*%
G04 #@! TD*
G04 APERTURE END LIST*
D10*
X164338000Y-99684000D03*
D11*
X166878000Y-99684000D03*
X169418000Y-99684000D03*
X171958000Y-99684000D03*
X174498000Y-99684000D03*
X177038000Y-99684000D03*
D12*
X123190000Y-79744000D03*
D13*
X123190000Y-84444000D03*
X123190000Y-89144000D03*
D10*
X174809150Y-94350000D03*
D11*
X172269150Y-94350000D03*
X169729150Y-94350000D03*
D10*
X114300000Y-112130000D03*
D11*
X114300000Y-109590000D03*
D14*
X132080000Y-95520000D03*
D15*
X132080000Y-90640000D03*
D16*
X168910000Y-119750000D03*
D17*
X166370000Y-119750000D03*
X163830000Y-119750000D03*
X161290000Y-119750000D03*
X168910000Y-117210000D03*
X166370000Y-117210000D03*
X163830000Y-117210000D03*
X161290000Y-117210000D03*
D10*
X175260000Y-86730000D03*
D11*
X172720000Y-86730000D03*
X170180000Y-86730000D03*
D10*
X114300000Y-91810000D03*
D11*
X114300000Y-94350000D03*
X114300000Y-96890000D03*
X114300000Y-99430000D03*
X114300000Y-101970000D03*
D10*
X151130000Y-109590000D03*
D11*
X148590000Y-109590000D03*
X146050000Y-109590000D03*
D10*
X148590000Y-79110000D03*
D11*
X151130000Y-79110000D03*
X153670000Y-79110000D03*
D10*
X175245000Y-80380000D03*
D11*
X172705000Y-80380000D03*
X170165000Y-80380000D03*
D18*
X167640000Y-107050000D03*
X165100000Y-109590000D03*
X166370000Y-108320000D03*
X168910000Y-105780000D03*
X170942000Y-119750000D03*
X177901600Y-80380000D03*
X157480000Y-85714000D03*
X151130000Y-112130000D03*
X122809000Y-101335000D03*
X139090400Y-98160000D03*
X164338000Y-82920000D03*
X137535000Y-94280000D03*
X116840000Y-90286000D03*
X135809995Y-116702000D03*
X145592800Y-104510000D03*
X163830000Y-95620000D03*
X164084000Y-85460000D03*
X176635000Y-107055000D03*
X155346400Y-104510000D03*
X177749200Y-86730000D03*
X122809000Y-94858000D03*
X148132800Y-93384800D03*
X158546800Y-112790400D03*
X111963200Y-109590000D03*
X174498000Y-101970000D03*
X119635001Y-108575001D03*
X157429200Y-95924800D03*
X138684000Y-89270000D03*
X116840000Y-101970000D03*
X148590000Y-117083000D03*
X148590000Y-114797000D03*
X148590000Y-89270000D03*
X148590000Y-91302000D03*
X149860000Y-91302000D03*
X149860000Y-89270000D03*
D19*
X165100000Y-109590000D02*
X166370000Y-108320000D01*
X167640000Y-107050000D02*
X168910000Y-105780000D01*
X148590000Y-114797000D02*
X148590000Y-117083000D01*
D20*
X148590000Y-89270000D02*
X148590000Y-91302000D01*
X149860000Y-91302000D02*
X149860000Y-89270000D01*
G04 #@! TA.AperFunction,Conductor*
G36*
X182602539Y-75450185D02*
G01*
X182648294Y-75502989D01*
X182659500Y-75554500D01*
X182659500Y-126305500D01*
X182639815Y-126372539D01*
X182587011Y-126418294D01*
X182535500Y-126429500D01*
X107784500Y-126429500D01*
X107717461Y-126409815D01*
X107671706Y-126357011D01*
X107660500Y-126305500D01*
X107660500Y-119750000D01*
X160234417Y-119750000D01*
X160254699Y-119955932D01*
X160254700Y-119955934D01*
X160314768Y-120153954D01*
X160412315Y-120336450D01*
X160412317Y-120336452D01*
X160543589Y-120496410D01*
X160606242Y-120547827D01*
X160703550Y-120627685D01*
X160886046Y-120725232D01*
X161084066Y-120785300D01*
X161084065Y-120785300D01*
X161102529Y-120787118D01*
X161290000Y-120805583D01*
X161495934Y-120785300D01*
X161693954Y-120725232D01*
X161876450Y-120627685D01*
X162036410Y-120496410D01*
X162167685Y-120336450D01*
X162265232Y-120153954D01*
X162325300Y-119955934D01*
X162345583Y-119750000D01*
X162774417Y-119750000D01*
X162794699Y-119955932D01*
X162794700Y-119955934D01*
X162854768Y-120153954D01*
X162952315Y-120336450D01*
X162952317Y-120336452D01*
X163083589Y-120496410D01*
X163146242Y-120547827D01*
X163243550Y-120627685D01*
X163426046Y-120725232D01*
X163624066Y-120785300D01*
X163624065Y-120785300D01*
X163642529Y-120787118D01*
X163830000Y-120805583D01*
X164035934Y-120785300D01*
X164233954Y-120725232D01*
X164416450Y-120627685D01*
X164576410Y-120496410D01*
X164707685Y-120336450D01*
X164805232Y-120153954D01*
X164865300Y-119955934D01*
X164885583Y-119750000D01*
X165314417Y-119750000D01*
X165334699Y-119955932D01*
X165334700Y-119955934D01*
X165394768Y-120153954D01*
X165492315Y-120336450D01*
X165492317Y-120336452D01*
X165623589Y-120496410D01*
X165686242Y-120547827D01*
X165783550Y-120627685D01*
X165966046Y-120725232D01*
X166164066Y-120785300D01*
X166164065Y-120785300D01*
X166182529Y-120787118D01*
X166370000Y-120805583D01*
X166575934Y-120785300D01*
X166773954Y-120725232D01*
X166956450Y-120627685D01*
X167116410Y-120496410D01*
X167247685Y-120336450D01*
X167345232Y-120153954D01*
X167405300Y-119955934D01*
X167412597Y-119881848D01*
X167438758Y-119817061D01*
X167495792Y-119776702D01*
X167565592Y-119773585D01*
X167625997Y-119808700D01*
X167657828Y-119870897D01*
X167660000Y-119894002D01*
X167660000Y-120547844D01*
X167666401Y-120607372D01*
X167666403Y-120607379D01*
X167716645Y-120742086D01*
X167716649Y-120742093D01*
X167802809Y-120857187D01*
X167802812Y-120857190D01*
X167917906Y-120943350D01*
X167917913Y-120943354D01*
X168052620Y-120993596D01*
X168052627Y-120993598D01*
X168112155Y-120999999D01*
X168112172Y-121000000D01*
X168660000Y-121000000D01*
X168660000Y-120065686D01*
X168664394Y-120070080D01*
X168755606Y-120122741D01*
X168857339Y-120150000D01*
X168962661Y-120150000D01*
X169064394Y-120122741D01*
X169155606Y-120070080D01*
X169160000Y-120065686D01*
X169160000Y-121000000D01*
X169707828Y-121000000D01*
X169707844Y-120999999D01*
X169767372Y-120993598D01*
X169767379Y-120993596D01*
X169902086Y-120943354D01*
X169902093Y-120943350D01*
X170017187Y-120857190D01*
X170017190Y-120857187D01*
X170103350Y-120742093D01*
X170103354Y-120742086D01*
X170153596Y-120607379D01*
X170153598Y-120607372D01*
X170159999Y-120547844D01*
X170160000Y-120547827D01*
X170160000Y-120000000D01*
X169225686Y-120000000D01*
X169230080Y-119995606D01*
X169282741Y-119904394D01*
X169310000Y-119802661D01*
X169310000Y-119697339D01*
X169282741Y-119595606D01*
X169230080Y-119504394D01*
X169225686Y-119500000D01*
X170160000Y-119500000D01*
X170160000Y-118952172D01*
X170159999Y-118952155D01*
X170153598Y-118892627D01*
X170153596Y-118892620D01*
X170103354Y-118757913D01*
X170103350Y-118757906D01*
X170017190Y-118642812D01*
X170017187Y-118642809D01*
X169902093Y-118556649D01*
X169902086Y-118556645D01*
X169767379Y-118506403D01*
X169767372Y-118506401D01*
X169707844Y-118500000D01*
X169054002Y-118500000D01*
X168986963Y-118480315D01*
X168941208Y-118427511D01*
X168931264Y-118358353D01*
X168960289Y-118294797D01*
X169019067Y-118257023D01*
X169041848Y-118252597D01*
X169060916Y-118250718D01*
X169115934Y-118245300D01*
X169313954Y-118185232D01*
X169496450Y-118087685D01*
X169656410Y-117956410D01*
X169787685Y-117796450D01*
X169885232Y-117613954D01*
X169945300Y-117415934D01*
X169965583Y-117210000D01*
X169945300Y-117004066D01*
X169885232Y-116806046D01*
X169787685Y-116623550D01*
X169735702Y-116560209D01*
X169656410Y-116463589D01*
X169496452Y-116332317D01*
X169496453Y-116332317D01*
X169496450Y-116332315D01*
X169313954Y-116234768D01*
X169115934Y-116174700D01*
X169115932Y-116174699D01*
X169115934Y-116174699D01*
X168910000Y-116154417D01*
X168704067Y-116174699D01*
X168506043Y-116234769D01*
X168395898Y-116293643D01*
X168323550Y-116332315D01*
X168323548Y-116332316D01*
X168323547Y-116332317D01*
X168163589Y-116463589D01*
X168032317Y-116623547D01*
X167934769Y-116806043D01*
X167874699Y-117004067D01*
X167854417Y-117210000D01*
X167874699Y-117415932D01*
X167934769Y-117613956D01*
X167941502Y-117626554D01*
X168032315Y-117796450D01*
X168032317Y-117796452D01*
X168163589Y-117956410D01*
X168260209Y-118035702D01*
X168323550Y-118087685D01*
X168506046Y-118185232D01*
X168704066Y-118245300D01*
X168704065Y-118245300D01*
X168778152Y-118252597D01*
X168842939Y-118278758D01*
X168883298Y-118335792D01*
X168886415Y-118405592D01*
X168851300Y-118465997D01*
X168789103Y-118497828D01*
X168765998Y-118500000D01*
X168112155Y-118500000D01*
X168052627Y-118506401D01*
X168052620Y-118506403D01*
X167917913Y-118556645D01*
X167917906Y-118556649D01*
X167802812Y-118642809D01*
X167802809Y-118642812D01*
X167716649Y-118757906D01*
X167716645Y-118757913D01*
X167666403Y-118892620D01*
X167666401Y-118892627D01*
X167660000Y-118952155D01*
X167660000Y-119605997D01*
X167640315Y-119673036D01*
X167587511Y-119718791D01*
X167518353Y-119728735D01*
X167454797Y-119699710D01*
X167417023Y-119640932D01*
X167412597Y-119618151D01*
X167405300Y-119544067D01*
X167395332Y-119511206D01*
X167345232Y-119346046D01*
X167247685Y-119163550D01*
X167195702Y-119100209D01*
X167116410Y-119003589D01*
X166956452Y-118872317D01*
X166956453Y-118872317D01*
X166956450Y-118872315D01*
X166773954Y-118774768D01*
X166575934Y-118714700D01*
X166575932Y-118714699D01*
X166575934Y-118714699D01*
X166370000Y-118694417D01*
X166164067Y-118714699D01*
X165966043Y-118774769D01*
X165855898Y-118833643D01*
X165783550Y-118872315D01*
X165783548Y-118872316D01*
X165783547Y-118872317D01*
X165623589Y-119003589D01*
X165492317Y-119163547D01*
X165394769Y-119346043D01*
X165334699Y-119544067D01*
X165314417Y-119750000D01*
X164885583Y-119750000D01*
X164865300Y-119544066D01*
X164805232Y-119346046D01*
X164707685Y-119163550D01*
X164655702Y-119100209D01*
X164576410Y-119003589D01*
X164416452Y-118872317D01*
X164416453Y-118872317D01*
X164416450Y-118872315D01*
X164233954Y-118774768D01*
X164035934Y-118714700D01*
X164035932Y-118714699D01*
X164035934Y-118714699D01*
X163830000Y-118694417D01*
X163624067Y-118714699D01*
X163426043Y-118774769D01*
X163315898Y-118833643D01*
X163243550Y-118872315D01*
X163243548Y-118872316D01*
X163243547Y-118872317D01*
X163083589Y-119003589D01*
X162952317Y-119163547D01*
X162854769Y-119346043D01*
X162794699Y-119544067D01*
X162774417Y-119750000D01*
X162345583Y-119750000D01*
X162325300Y-119544066D01*
X162265232Y-119346046D01*
X162167685Y-119163550D01*
X162115702Y-119100209D01*
X162036410Y-119003589D01*
X161876452Y-118872317D01*
X161876453Y-118872317D01*
X161876450Y-118872315D01*
X161693954Y-118774768D01*
X161495934Y-118714700D01*
X161495932Y-118714699D01*
X161495934Y-118714699D01*
X161290000Y-118694417D01*
X161084067Y-118714699D01*
X160886043Y-118774769D01*
X160775898Y-118833643D01*
X160703550Y-118872315D01*
X160703548Y-118872316D01*
X160703547Y-118872317D01*
X160543589Y-119003589D01*
X160412317Y-119163547D01*
X160314769Y-119346043D01*
X160254699Y-119544067D01*
X160234417Y-119750000D01*
X107660500Y-119750000D01*
X107660500Y-114796999D01*
X147934722Y-114796999D01*
X147934722Y-114797000D01*
X147953762Y-114953818D01*
X148009780Y-115101523D01*
X148017548Y-115112777D01*
X148039433Y-115179130D01*
X148039500Y-115183219D01*
X148039500Y-116696780D01*
X148019815Y-116763819D01*
X148017552Y-116767217D01*
X148009780Y-116778476D01*
X147953762Y-116926181D01*
X147934722Y-117082999D01*
X147934722Y-117083000D01*
X147953762Y-117239818D01*
X148009780Y-117387523D01*
X148099517Y-117517530D01*
X148217760Y-117622283D01*
X148217762Y-117622284D01*
X148357634Y-117695696D01*
X148511014Y-117733500D01*
X148511015Y-117733500D01*
X148668985Y-117733500D01*
X148822365Y-117695696D01*
X148962240Y-117622283D01*
X149080483Y-117517530D01*
X149170220Y-117387523D01*
X149226237Y-117239818D01*
X149229858Y-117210000D01*
X160234417Y-117210000D01*
X160254699Y-117415932D01*
X160314769Y-117613956D01*
X160321502Y-117626554D01*
X160412315Y-117796450D01*
X160412317Y-117796452D01*
X160543589Y-117956410D01*
X160640209Y-118035702D01*
X160703550Y-118087685D01*
X160886046Y-118185232D01*
X161084066Y-118245300D01*
X161084065Y-118245300D01*
X161102529Y-118247118D01*
X161290000Y-118265583D01*
X161495934Y-118245300D01*
X161693954Y-118185232D01*
X161876450Y-118087685D01*
X162036410Y-117956410D01*
X162167685Y-117796450D01*
X162265232Y-117613954D01*
X162325300Y-117415934D01*
X162345583Y-117210000D01*
X162774417Y-117210000D01*
X162794699Y-117415932D01*
X162854769Y-117613956D01*
X162861502Y-117626554D01*
X162952315Y-117796450D01*
X162952317Y-117796452D01*
X163083589Y-117956410D01*
X163180209Y-118035702D01*
X163243550Y-118087685D01*
X163426046Y-118185232D01*
X163624066Y-118245300D01*
X163624065Y-118245300D01*
X163642529Y-118247118D01*
X163830000Y-118265583D01*
X164035934Y-118245300D01*
X164233954Y-118185232D01*
X164416450Y-118087685D01*
X164576410Y-117956410D01*
X164707685Y-117796450D01*
X164805232Y-117613954D01*
X164865300Y-117415934D01*
X164885583Y-117210000D01*
X165314417Y-117210000D01*
X165334699Y-117415932D01*
X165394769Y-117613956D01*
X165401502Y-117626554D01*
X165492315Y-117796450D01*
X165492317Y-117796452D01*
X165623589Y-117956410D01*
X165720209Y-118035702D01*
X165783550Y-118087685D01*
X165966046Y-118185232D01*
X166164066Y-118245300D01*
X166164065Y-118245300D01*
X166182529Y-118247118D01*
X166370000Y-118265583D01*
X166575934Y-118245300D01*
X166773954Y-118185232D01*
X166956450Y-118087685D01*
X167116410Y-117956410D01*
X167247685Y-117796450D01*
X167345232Y-117613954D01*
X167405300Y-117415934D01*
X167425583Y-117210000D01*
X167405300Y-117004066D01*
X167345232Y-116806046D01*
X167247685Y-116623550D01*
X167195702Y-116560209D01*
X167116410Y-116463589D01*
X166956452Y-116332317D01*
X166956453Y-116332317D01*
X166956450Y-116332315D01*
X166773954Y-116234768D01*
X166575934Y-116174700D01*
X166575932Y-116174699D01*
X166575934Y-116174699D01*
X166370000Y-116154417D01*
X166164067Y-116174699D01*
X165966043Y-116234769D01*
X165855898Y-116293643D01*
X165783550Y-116332315D01*
X165783548Y-116332316D01*
X165783547Y-116332317D01*
X165623589Y-116463589D01*
X165492317Y-116623547D01*
X165394769Y-116806043D01*
X165334699Y-117004067D01*
X165314417Y-117210000D01*
X164885583Y-117210000D01*
X164865300Y-117004066D01*
X164805232Y-116806046D01*
X164707685Y-116623550D01*
X164655702Y-116560209D01*
X164576410Y-116463589D01*
X164416452Y-116332317D01*
X164416453Y-116332317D01*
X164416450Y-116332315D01*
X164233954Y-116234768D01*
X164035934Y-116174700D01*
X164035932Y-116174699D01*
X164035934Y-116174699D01*
X163830000Y-116154417D01*
X163624067Y-116174699D01*
X163426043Y-116234769D01*
X163315898Y-116293643D01*
X163243550Y-116332315D01*
X163243548Y-116332316D01*
X163243547Y-116332317D01*
X163083589Y-116463589D01*
X162952317Y-116623547D01*
X162854769Y-116806043D01*
X162794699Y-117004067D01*
X162774417Y-117210000D01*
X162345583Y-117210000D01*
X162325300Y-117004066D01*
X162265232Y-116806046D01*
X162167685Y-116623550D01*
X162115702Y-116560209D01*
X162036410Y-116463589D01*
X161876452Y-116332317D01*
X161876453Y-116332317D01*
X161876450Y-116332315D01*
X161693954Y-116234768D01*
X161495934Y-116174700D01*
X161495932Y-116174699D01*
X161495934Y-116174699D01*
X161290000Y-116154417D01*
X161084067Y-116174699D01*
X160886043Y-116234769D01*
X160775898Y-116293643D01*
X160703550Y-116332315D01*
X160703548Y-116332316D01*
X160703547Y-116332317D01*
X160543589Y-116463589D01*
X160412317Y-116623547D01*
X160314769Y-116806043D01*
X160254699Y-117004067D01*
X160234417Y-117210000D01*
X149229858Y-117210000D01*
X149245278Y-117083000D01*
X149226237Y-116926182D01*
X149170220Y-116778477D01*
X149162448Y-116767217D01*
X149140567Y-116700862D01*
X149140500Y-116696780D01*
X149140500Y-115183219D01*
X149160185Y-115116180D01*
X149162434Y-115112802D01*
X149170220Y-115101523D01*
X149226237Y-114953818D01*
X149245278Y-114797000D01*
X149226237Y-114640182D01*
X149170220Y-114492477D01*
X149080483Y-114362470D01*
X148962240Y-114257717D01*
X148962238Y-114257716D01*
X148962237Y-114257715D01*
X148822365Y-114184303D01*
X148668986Y-114146500D01*
X148668985Y-114146500D01*
X148511015Y-114146500D01*
X148511014Y-114146500D01*
X148357634Y-114184303D01*
X148217762Y-114257715D01*
X148099516Y-114362471D01*
X148009781Y-114492475D01*
X148009780Y-114492476D01*
X147953762Y-114640181D01*
X147934722Y-114796999D01*
X107660500Y-114796999D01*
X107660500Y-109339999D01*
X112969364Y-109339999D01*
X112969364Y-109340000D01*
X113866988Y-109340000D01*
X113834075Y-109397007D01*
X113800000Y-109524174D01*
X113800000Y-109655826D01*
X113834075Y-109782993D01*
X113866988Y-109840000D01*
X112969364Y-109840000D01*
X113026567Y-110053486D01*
X113026570Y-110053492D01*
X113126399Y-110267578D01*
X113261894Y-110461082D01*
X113428917Y-110628105D01*
X113608605Y-110753925D01*
X113652230Y-110808502D01*
X113659422Y-110878001D01*
X113627900Y-110940355D01*
X113567670Y-110975769D01*
X113537482Y-110979500D01*
X113405144Y-110979500D01*
X113405117Y-110979502D01*
X113380012Y-110982413D01*
X113380008Y-110982415D01*
X113277235Y-111027793D01*
X113197794Y-111107234D01*
X113152415Y-111210006D01*
X113152415Y-111210008D01*
X113149500Y-111235131D01*
X113149500Y-113024856D01*
X113149502Y-113024882D01*
X113152413Y-113049987D01*
X113152415Y-113049991D01*
X113197793Y-113152764D01*
X113197794Y-113152765D01*
X113277235Y-113232206D01*
X113380009Y-113277585D01*
X113405135Y-113280500D01*
X115194864Y-113280499D01*
X115194879Y-113280497D01*
X115194882Y-113280497D01*
X115219987Y-113277586D01*
X115219988Y-113277585D01*
X115219991Y-113277585D01*
X115322765Y-113232206D01*
X115402206Y-113152765D01*
X115447585Y-113049991D01*
X115450500Y-113024865D01*
X115450499Y-111235136D01*
X115450497Y-111235117D01*
X115447586Y-111210012D01*
X115447585Y-111210010D01*
X115447585Y-111210009D01*
X115402206Y-111107235D01*
X115322765Y-111027794D01*
X115322763Y-111027793D01*
X115219992Y-110982415D01*
X115194868Y-110979500D01*
X115062519Y-110979500D01*
X114995480Y-110959815D01*
X114949725Y-110907011D01*
X114939781Y-110837853D01*
X114968806Y-110774297D01*
X114991395Y-110753925D01*
X115171082Y-110628105D01*
X115338105Y-110461082D01*
X115473600Y-110267578D01*
X115573429Y-110053492D01*
X115573432Y-110053486D01*
X115630636Y-109840000D01*
X114733012Y-109840000D01*
X114765925Y-109782993D01*
X114800000Y-109655826D01*
X114800000Y-109590000D01*
X144894571Y-109590000D01*
X144914244Y-109802310D01*
X144967675Y-109990099D01*
X144972596Y-110007392D01*
X144972596Y-110007394D01*
X145067632Y-110198253D01*
X145139385Y-110293268D01*
X145196128Y-110368407D01*
X145353698Y-110512052D01*
X145534981Y-110624298D01*
X145733802Y-110701321D01*
X145943390Y-110740500D01*
X145943392Y-110740500D01*
X146156608Y-110740500D01*
X146156610Y-110740500D01*
X146366198Y-110701321D01*
X146565019Y-110624298D01*
X146746302Y-110512052D01*
X146903872Y-110368407D01*
X147032366Y-110198255D01*
X147086270Y-110090000D01*
X147127403Y-110007394D01*
X147127403Y-110007393D01*
X147127405Y-110007389D01*
X147185756Y-109802310D01*
X147196529Y-109686047D01*
X147222315Y-109621111D01*
X147264622Y-109590804D01*
X147373130Y-109590804D01*
X147409503Y-109611668D01*
X147441693Y-109673681D01*
X147443470Y-109686047D01*
X147454244Y-109802310D01*
X147507675Y-109990099D01*
X147512596Y-110007392D01*
X147512596Y-110007394D01*
X147607632Y-110198253D01*
X147679385Y-110293268D01*
X147736128Y-110368407D01*
X147893698Y-110512052D01*
X148074981Y-110624298D01*
X148273802Y-110701321D01*
X148483390Y-110740500D01*
X148483392Y-110740500D01*
X148696608Y-110740500D01*
X148696610Y-110740500D01*
X148906198Y-110701321D01*
X149105019Y-110624298D01*
X149286302Y-110512052D01*
X149443872Y-110368407D01*
X149557047Y-110218540D01*
X149613155Y-110176905D01*
X149682867Y-110172214D01*
X149744049Y-110205956D01*
X149777276Y-110267419D01*
X149780000Y-110293268D01*
X149780000Y-110487844D01*
X149786401Y-110547372D01*
X149786403Y-110547379D01*
X149836645Y-110682086D01*
X149836649Y-110682093D01*
X149922809Y-110797187D01*
X149922812Y-110797190D01*
X150037906Y-110883350D01*
X150037913Y-110883354D01*
X150172620Y-110933596D01*
X150172627Y-110933598D01*
X150232155Y-110939999D01*
X150232172Y-110940000D01*
X150880000Y-110940000D01*
X150880000Y-110023012D01*
X150937007Y-110055925D01*
X151064174Y-110090000D01*
X151195826Y-110090000D01*
X151322993Y-110055925D01*
X151380000Y-110023012D01*
X151380000Y-110940000D01*
X152027828Y-110940000D01*
X152027844Y-110939999D01*
X152087372Y-110933598D01*
X152087379Y-110933596D01*
X152222086Y-110883354D01*
X152222093Y-110883350D01*
X152337187Y-110797190D01*
X152337190Y-110797187D01*
X152423350Y-110682093D01*
X152423354Y-110682086D01*
X152473596Y-110547379D01*
X152473598Y-110547372D01*
X152479999Y-110487844D01*
X152480000Y-110487827D01*
X152480000Y-109840000D01*
X151563012Y-109840000D01*
X151595925Y-109782993D01*
X151630000Y-109655826D01*
X151630000Y-109589999D01*
X164444722Y-109589999D01*
X164444722Y-109590000D01*
X164463762Y-109746818D01*
X164477482Y-109782993D01*
X164519780Y-109894523D01*
X164609517Y-110024530D01*
X164727760Y-110129283D01*
X164727762Y-110129284D01*
X164867634Y-110202696D01*
X165021014Y-110240500D01*
X165021015Y-110240500D01*
X165178985Y-110240500D01*
X165332365Y-110202696D01*
X165472240Y-110129283D01*
X165590483Y-110024530D01*
X165680220Y-109894523D01*
X165735677Y-109748294D01*
X165763935Y-109704588D01*
X166489623Y-108978900D01*
X166547628Y-108946186D01*
X166578959Y-108938464D01*
X166602362Y-108932697D01*
X166602363Y-108932696D01*
X166602365Y-108932696D01*
X166742240Y-108859283D01*
X166860483Y-108754530D01*
X166950220Y-108624523D01*
X167006237Y-108476818D01*
X167025278Y-108320000D01*
X167006237Y-108163182D01*
X166950220Y-108015477D01*
X166860483Y-107885470D01*
X166742240Y-107780717D01*
X166742238Y-107780716D01*
X166742237Y-107780715D01*
X166602365Y-107707303D01*
X166448986Y-107669500D01*
X166448985Y-107669500D01*
X166291015Y-107669500D01*
X166291014Y-107669500D01*
X166137634Y-107707303D01*
X165997762Y-107780715D01*
X165879516Y-107885471D01*
X165789781Y-108015475D01*
X165789780Y-108015476D01*
X165734325Y-108161699D01*
X165706064Y-108205409D01*
X164980377Y-108931096D01*
X164922372Y-108963811D01*
X164867638Y-108977302D01*
X164867634Y-108977303D01*
X164727762Y-109050715D01*
X164609516Y-109155471D01*
X164519781Y-109285475D01*
X164519780Y-109285476D01*
X164463762Y-109433181D01*
X164444722Y-109589999D01*
X151630000Y-109589999D01*
X151630000Y-109524174D01*
X151595925Y-109397007D01*
X151563012Y-109340000D01*
X152480000Y-109340000D01*
X152480000Y-108692172D01*
X152479999Y-108692155D01*
X152473598Y-108632627D01*
X152473596Y-108632620D01*
X152423354Y-108497913D01*
X152423350Y-108497906D01*
X152337190Y-108382812D01*
X152337187Y-108382809D01*
X152222093Y-108296649D01*
X152222086Y-108296645D01*
X152087379Y-108246403D01*
X152087372Y-108246401D01*
X152027844Y-108240000D01*
X151380000Y-108240000D01*
X151380000Y-109156988D01*
X151322993Y-109124075D01*
X151195826Y-109090000D01*
X151064174Y-109090000D01*
X150937007Y-109124075D01*
X150880000Y-109156988D01*
X150880000Y-108240000D01*
X150232155Y-108240000D01*
X150172627Y-108246401D01*
X150172620Y-108246403D01*
X150037913Y-108296645D01*
X150037906Y-108296649D01*
X149922812Y-108382809D01*
X149922809Y-108382812D01*
X149836649Y-108497906D01*
X149836645Y-108497913D01*
X149786403Y-108632620D01*
X149786401Y-108632627D01*
X149780000Y-108692155D01*
X149780000Y-108886731D01*
X149760315Y-108953770D01*
X149707511Y-108999525D01*
X149638353Y-109009469D01*
X149574797Y-108980444D01*
X149557046Y-108961458D01*
X149443872Y-108811593D01*
X149381275Y-108754528D01*
X149286302Y-108667948D01*
X149105019Y-108555702D01*
X149105017Y-108555701D01*
X148955829Y-108497906D01*
X148906198Y-108478679D01*
X148696610Y-108439500D01*
X148483390Y-108439500D01*
X148273802Y-108478679D01*
X148273799Y-108478679D01*
X148273799Y-108478680D01*
X148074982Y-108555701D01*
X148074980Y-108555702D01*
X147893699Y-108667947D01*
X147736127Y-108811593D01*
X147607632Y-108981746D01*
X147512596Y-109172605D01*
X147512596Y-109172607D01*
X147454244Y-109377689D01*
X147443471Y-109493951D01*
X147417685Y-109558888D01*
X147373130Y-109590804D01*
X147264622Y-109590804D01*
X147266869Y-109589194D01*
X147230497Y-109568331D01*
X147198307Y-109506318D01*
X147196529Y-109493951D01*
X147190898Y-109433182D01*
X147185756Y-109377690D01*
X147127405Y-109172611D01*
X147127403Y-109172606D01*
X147127403Y-109172605D01*
X147032367Y-108981746D01*
X146903872Y-108811593D01*
X146841275Y-108754528D01*
X146746302Y-108667948D01*
X146565019Y-108555702D01*
X146565017Y-108555701D01*
X146415829Y-108497906D01*
X146366198Y-108478679D01*
X146156610Y-108439500D01*
X145943390Y-108439500D01*
X145733802Y-108478679D01*
X145733799Y-108478679D01*
X145733799Y-108478680D01*
X145534982Y-108555701D01*
X145534980Y-108555702D01*
X145353699Y-108667947D01*
X145196127Y-108811593D01*
X145067632Y-108981746D01*
X144972596Y-109172605D01*
X144972596Y-109172607D01*
X144914244Y-109377689D01*
X144900671Y-109524174D01*
X144894571Y-109590000D01*
X114800000Y-109590000D01*
X114800000Y-109524174D01*
X114765925Y-109397007D01*
X114733012Y-109340000D01*
X115630636Y-109340000D01*
X115630635Y-109339999D01*
X115573432Y-109126513D01*
X115573429Y-109126507D01*
X115473600Y-108912422D01*
X115473599Y-108912420D01*
X115338113Y-108718926D01*
X115338108Y-108718920D01*
X115171082Y-108551894D01*
X114977578Y-108416399D01*
X114763492Y-108316570D01*
X114763486Y-108316567D01*
X114550000Y-108259364D01*
X114550000Y-109156988D01*
X114492993Y-109124075D01*
X114365826Y-109090000D01*
X114234174Y-109090000D01*
X114107007Y-109124075D01*
X114050000Y-109156988D01*
X114050000Y-108259364D01*
X114049999Y-108259364D01*
X113836513Y-108316567D01*
X113836507Y-108316570D01*
X113622422Y-108416399D01*
X113622420Y-108416400D01*
X113428926Y-108551886D01*
X113428920Y-108551891D01*
X113261891Y-108718920D01*
X113261886Y-108718926D01*
X113126400Y-108912420D01*
X113126399Y-108912422D01*
X113026570Y-109126507D01*
X113026567Y-109126513D01*
X112969364Y-109339999D01*
X107660500Y-109339999D01*
X107660500Y-107049999D01*
X166984722Y-107049999D01*
X166984722Y-107050000D01*
X167003762Y-107206818D01*
X167059780Y-107354523D01*
X167149517Y-107484530D01*
X167267760Y-107589283D01*
X167267762Y-107589284D01*
X167407634Y-107662696D01*
X167561014Y-107700500D01*
X167561015Y-107700500D01*
X167718985Y-107700500D01*
X167872365Y-107662696D01*
X168012240Y-107589283D01*
X168130483Y-107484530D01*
X168220220Y-107354523D01*
X168275677Y-107208294D01*
X168303935Y-107164588D01*
X169029623Y-106438900D01*
X169087628Y-106406186D01*
X169118959Y-106398464D01*
X169142362Y-106392697D01*
X169142363Y-106392696D01*
X169142365Y-106392696D01*
X169282240Y-106319283D01*
X169400483Y-106214530D01*
X169490220Y-106084523D01*
X169546237Y-105936818D01*
X169565278Y-105780000D01*
X169546237Y-105623182D01*
X169490220Y-105475477D01*
X169400483Y-105345470D01*
X169282240Y-105240717D01*
X169282238Y-105240716D01*
X169282237Y-105240715D01*
X169142365Y-105167303D01*
X168988986Y-105129500D01*
X168988985Y-105129500D01*
X168831015Y-105129500D01*
X168831014Y-105129500D01*
X168677634Y-105167303D01*
X168537762Y-105240715D01*
X168419516Y-105345471D01*
X168329781Y-105475475D01*
X168329780Y-105475476D01*
X168274325Y-105621699D01*
X168246064Y-105665409D01*
X167520377Y-106391096D01*
X167462372Y-106423811D01*
X167407638Y-106437302D01*
X167407634Y-106437303D01*
X167267762Y-106510715D01*
X167149516Y-106615471D01*
X167059781Y-106745475D01*
X167059780Y-106745476D01*
X167003762Y-106893181D01*
X166984722Y-107049999D01*
X107660500Y-107049999D01*
X107660500Y-101719999D01*
X112969364Y-101719999D01*
X112969364Y-101720000D01*
X113866988Y-101720000D01*
X113834075Y-101777007D01*
X113800000Y-101904174D01*
X113800000Y-102035826D01*
X113834075Y-102162993D01*
X113866988Y-102220000D01*
X112969364Y-102220000D01*
X113026567Y-102433486D01*
X113026570Y-102433492D01*
X113126399Y-102647578D01*
X113261894Y-102841082D01*
X113428917Y-103008105D01*
X113622421Y-103143600D01*
X113836507Y-103243429D01*
X113836516Y-103243433D01*
X114050000Y-103300634D01*
X114050000Y-102403012D01*
X114107007Y-102435925D01*
X114234174Y-102470000D01*
X114365826Y-102470000D01*
X114492993Y-102435925D01*
X114550000Y-102403012D01*
X114550000Y-103300633D01*
X114763483Y-103243433D01*
X114763492Y-103243429D01*
X114977578Y-103143600D01*
X115171082Y-103008105D01*
X115338105Y-102841082D01*
X115473600Y-102647578D01*
X115573429Y-102433492D01*
X115573432Y-102433486D01*
X115630636Y-102220000D01*
X114733012Y-102220000D01*
X114765925Y-102162993D01*
X114800000Y-102035826D01*
X114800000Y-101904174D01*
X114765925Y-101777007D01*
X114733012Y-101720000D01*
X115630636Y-101720000D01*
X115630635Y-101719999D01*
X115573432Y-101506513D01*
X115573429Y-101506507D01*
X115473600Y-101292422D01*
X115473599Y-101292420D01*
X115338113Y-101098926D01*
X115338108Y-101098920D01*
X115171082Y-100931894D01*
X114977578Y-100796399D01*
X114778426Y-100703533D01*
X114725987Y-100657360D01*
X114706835Y-100590167D01*
X114727051Y-100523286D01*
X114780216Y-100477951D01*
X114786005Y-100475537D01*
X114815019Y-100464298D01*
X114996302Y-100352052D01*
X115153872Y-100208407D01*
X115282366Y-100038255D01*
X115282367Y-100038253D01*
X115377403Y-99847394D01*
X115377403Y-99847393D01*
X115377405Y-99847389D01*
X115435756Y-99642310D01*
X115455429Y-99430000D01*
X115435756Y-99217690D01*
X115377405Y-99012611D01*
X115377403Y-99012606D01*
X115377403Y-99012605D01*
X115282367Y-98821746D01*
X115257737Y-98789131D01*
X163187500Y-98789131D01*
X163187500Y-100578856D01*
X163187502Y-100578882D01*
X163190413Y-100603987D01*
X163190415Y-100603991D01*
X163235793Y-100706764D01*
X163235794Y-100706765D01*
X163315235Y-100786206D01*
X163418009Y-100831585D01*
X163443135Y-100834500D01*
X165232864Y-100834499D01*
X165232879Y-100834497D01*
X165232882Y-100834497D01*
X165257987Y-100831586D01*
X165257988Y-100831585D01*
X165257991Y-100831585D01*
X165360765Y-100786206D01*
X165440206Y-100706765D01*
X165485585Y-100603991D01*
X165488500Y-100578865D01*
X165488499Y-99840046D01*
X165508183Y-99773009D01*
X165560987Y-99727254D01*
X165630146Y-99717310D01*
X165693702Y-99746335D01*
X165731476Y-99805113D01*
X165735970Y-99828606D01*
X165737711Y-99847389D01*
X165742244Y-99896310D01*
X165795675Y-100084099D01*
X165800596Y-100101392D01*
X165800596Y-100101394D01*
X165895632Y-100292253D01*
X166024127Y-100462406D01*
X166024128Y-100462407D01*
X166181698Y-100606052D01*
X166362981Y-100718298D01*
X166561802Y-100795321D01*
X166771390Y-100834500D01*
X166771392Y-100834500D01*
X166984608Y-100834500D01*
X166984610Y-100834500D01*
X167194198Y-100795321D01*
X167393019Y-100718298D01*
X167574302Y-100606052D01*
X167731872Y-100462407D01*
X167860366Y-100292255D01*
X167902117Y-100208407D01*
X167955403Y-100101394D01*
X167955403Y-100101393D01*
X167955405Y-100101389D01*
X168013756Y-99896310D01*
X168024529Y-99780047D01*
X168050315Y-99715111D01*
X168092622Y-99684804D01*
X168201130Y-99684804D01*
X168237503Y-99705668D01*
X168269693Y-99767681D01*
X168271470Y-99780047D01*
X168282244Y-99896310D01*
X168335675Y-100084099D01*
X168340596Y-100101392D01*
X168340596Y-100101394D01*
X168435632Y-100292253D01*
X168564127Y-100462406D01*
X168564128Y-100462407D01*
X168721698Y-100606052D01*
X168902981Y-100718298D01*
X169101802Y-100795321D01*
X169311390Y-100834500D01*
X169311392Y-100834500D01*
X169524608Y-100834500D01*
X169524610Y-100834500D01*
X169734198Y-100795321D01*
X169933019Y-100718298D01*
X170114302Y-100606052D01*
X170271872Y-100462407D01*
X170400366Y-100292255D01*
X170442117Y-100208407D01*
X170495403Y-100101394D01*
X170495403Y-100101393D01*
X170495405Y-100101389D01*
X170553756Y-99896310D01*
X170564529Y-99780047D01*
X170590315Y-99715111D01*
X170632622Y-99684804D01*
X170741130Y-99684804D01*
X170777503Y-99705668D01*
X170809693Y-99767681D01*
X170811470Y-99780047D01*
X170822244Y-99896310D01*
X170875675Y-100084099D01*
X170880596Y-100101392D01*
X170880596Y-100101394D01*
X170975632Y-100292253D01*
X171104127Y-100462406D01*
X171104128Y-100462407D01*
X171261698Y-100606052D01*
X171442981Y-100718298D01*
X171641802Y-100795321D01*
X171851390Y-100834500D01*
X171851392Y-100834500D01*
X172064608Y-100834500D01*
X172064610Y-100834500D01*
X172274198Y-100795321D01*
X172473019Y-100718298D01*
X172654302Y-100606052D01*
X172811872Y-100462407D01*
X172940366Y-100292255D01*
X173007325Y-100157781D01*
X173054825Y-100106548D01*
X173122488Y-100089126D01*
X173188828Y-100111051D01*
X173230705Y-100160651D01*
X173324399Y-100361578D01*
X173459894Y-100555082D01*
X173626917Y-100722105D01*
X173820421Y-100857600D01*
X174034507Y-100957429D01*
X174034516Y-100957433D01*
X174248000Y-101014634D01*
X174248000Y-100117012D01*
X174305007Y-100149925D01*
X174432174Y-100184000D01*
X174563826Y-100184000D01*
X174690993Y-100149925D01*
X174748000Y-100117012D01*
X174748000Y-101014633D01*
X174961483Y-100957433D01*
X174961492Y-100957429D01*
X175175578Y-100857600D01*
X175369082Y-100722105D01*
X175536105Y-100555082D01*
X175671600Y-100361578D01*
X175765294Y-100160651D01*
X175811466Y-100108212D01*
X175878660Y-100089060D01*
X175945541Y-100109276D01*
X175988676Y-100157785D01*
X176055632Y-100292253D01*
X176184127Y-100462406D01*
X176184128Y-100462407D01*
X176341698Y-100606052D01*
X176522981Y-100718298D01*
X176721802Y-100795321D01*
X176931390Y-100834500D01*
X176931392Y-100834500D01*
X177144608Y-100834500D01*
X177144610Y-100834500D01*
X177354198Y-100795321D01*
X177553019Y-100718298D01*
X177734302Y-100606052D01*
X177891872Y-100462407D01*
X178020366Y-100292255D01*
X178062117Y-100208407D01*
X178115403Y-100101394D01*
X178115403Y-100101393D01*
X178115405Y-100101389D01*
X178173756Y-99896310D01*
X178193429Y-99684000D01*
X178173756Y-99471690D01*
X178115405Y-99266611D01*
X178115403Y-99266606D01*
X178115403Y-99266605D01*
X178020367Y-99075746D01*
X177891872Y-98905593D01*
X177734302Y-98761948D01*
X177553019Y-98649702D01*
X177553017Y-98649701D01*
X177453608Y-98611190D01*
X177354198Y-98572679D01*
X177144610Y-98533500D01*
X176931390Y-98533500D01*
X176721802Y-98572679D01*
X176721799Y-98572679D01*
X176721799Y-98572680D01*
X176522982Y-98649701D01*
X176522980Y-98649702D01*
X176341699Y-98761947D01*
X176184127Y-98905593D01*
X176055634Y-99075744D01*
X175988676Y-99210215D01*
X175941173Y-99261452D01*
X175873510Y-99278873D01*
X175807170Y-99256947D01*
X175765294Y-99207348D01*
X175671600Y-99006422D01*
X175671599Y-99006420D01*
X175536113Y-98812926D01*
X175536108Y-98812920D01*
X175369082Y-98645894D01*
X175175578Y-98510399D01*
X174961492Y-98410570D01*
X174961486Y-98410567D01*
X174748000Y-98353364D01*
X174748000Y-99250988D01*
X174690993Y-99218075D01*
X174563826Y-99184000D01*
X174432174Y-99184000D01*
X174305007Y-99218075D01*
X174248000Y-99250988D01*
X174248000Y-98353364D01*
X174247999Y-98353364D01*
X174034513Y-98410567D01*
X174034507Y-98410570D01*
X173820422Y-98510399D01*
X173820420Y-98510400D01*
X173626926Y-98645886D01*
X173626920Y-98645891D01*
X173459891Y-98812920D01*
X173459886Y-98812926D01*
X173324400Y-99006420D01*
X173324399Y-99006422D01*
X173230705Y-99207348D01*
X173184532Y-99259787D01*
X173117339Y-99278939D01*
X173050457Y-99258723D01*
X173007323Y-99210215D01*
X172940366Y-99075745D01*
X172892684Y-99012605D01*
X172811872Y-98905593D01*
X172654302Y-98761948D01*
X172473019Y-98649702D01*
X172473017Y-98649701D01*
X172373608Y-98611190D01*
X172274198Y-98572679D01*
X172064610Y-98533500D01*
X171851390Y-98533500D01*
X171641802Y-98572679D01*
X171641799Y-98572679D01*
X171641799Y-98572680D01*
X171442982Y-98649701D01*
X171442980Y-98649702D01*
X171261699Y-98761947D01*
X171104127Y-98905593D01*
X170975632Y-99075746D01*
X170880596Y-99266605D01*
X170880596Y-99266607D01*
X170822244Y-99471689D01*
X170811471Y-99587951D01*
X170785685Y-99652888D01*
X170741130Y-99684804D01*
X170632622Y-99684804D01*
X170634869Y-99683194D01*
X170598497Y-99662331D01*
X170566307Y-99600318D01*
X170564529Y-99587951D01*
X170561175Y-99551759D01*
X170553756Y-99471690D01*
X170495405Y-99266611D01*
X170495403Y-99266606D01*
X170495403Y-99266605D01*
X170400367Y-99075746D01*
X170271872Y-98905593D01*
X170114302Y-98761948D01*
X169933019Y-98649702D01*
X169933017Y-98649701D01*
X169833608Y-98611190D01*
X169734198Y-98572679D01*
X169524610Y-98533500D01*
X169311390Y-98533500D01*
X169101802Y-98572679D01*
X169101799Y-98572679D01*
X169101799Y-98572680D01*
X168902982Y-98649701D01*
X168902980Y-98649702D01*
X168721699Y-98761947D01*
X168564127Y-98905593D01*
X168435632Y-99075746D01*
X168340596Y-99266605D01*
X168340596Y-99266607D01*
X168282244Y-99471689D01*
X168271471Y-99587951D01*
X168245685Y-99652888D01*
X168201130Y-99684804D01*
X168092622Y-99684804D01*
X168094869Y-99683194D01*
X168058497Y-99662331D01*
X168026307Y-99600318D01*
X168024529Y-99587951D01*
X168021175Y-99551759D01*
X168013756Y-99471690D01*
X167955405Y-99266611D01*
X167955403Y-99266606D01*
X167955403Y-99266605D01*
X167860367Y-99075746D01*
X167731872Y-98905593D01*
X167574302Y-98761948D01*
X167393019Y-98649702D01*
X167393017Y-98649701D01*
X167293608Y-98611190D01*
X167194198Y-98572679D01*
X166984610Y-98533500D01*
X166771390Y-98533500D01*
X166561802Y-98572679D01*
X166561799Y-98572679D01*
X166561799Y-98572680D01*
X166362982Y-98649701D01*
X166362980Y-98649702D01*
X166181699Y-98761947D01*
X166024127Y-98905593D01*
X165895632Y-99075746D01*
X165800596Y-99266605D01*
X165800596Y-99266607D01*
X165742244Y-99471689D01*
X165735970Y-99539394D01*
X165710183Y-99604331D01*
X165653383Y-99645018D01*
X165583602Y-99648538D01*
X165522995Y-99613772D01*
X165490806Y-99551759D01*
X165488499Y-99527952D01*
X165488499Y-98789143D01*
X165488499Y-98789136D01*
X165488497Y-98789117D01*
X165485586Y-98764012D01*
X165485585Y-98764010D01*
X165485585Y-98764009D01*
X165440206Y-98661235D01*
X165360765Y-98581794D01*
X165340124Y-98572680D01*
X165257992Y-98536415D01*
X165232865Y-98533500D01*
X163443143Y-98533500D01*
X163443117Y-98533502D01*
X163418012Y-98536413D01*
X163418008Y-98536415D01*
X163315235Y-98581793D01*
X163235794Y-98661234D01*
X163190415Y-98764006D01*
X163190415Y-98764008D01*
X163187500Y-98789131D01*
X115257737Y-98789131D01*
X115153872Y-98651593D01*
X115147612Y-98645886D01*
X114996302Y-98507948D01*
X114815019Y-98395702D01*
X114815017Y-98395701D01*
X114705731Y-98353364D01*
X114616198Y-98318679D01*
X114419385Y-98281888D01*
X114357106Y-98250221D01*
X114321833Y-98189908D01*
X114324767Y-98120100D01*
X114364976Y-98062960D01*
X114419384Y-98038111D01*
X114616198Y-98001321D01*
X114815019Y-97924298D01*
X114996302Y-97812052D01*
X115153872Y-97668407D01*
X115282366Y-97498255D01*
X115377405Y-97307389D01*
X115435756Y-97102310D01*
X115455429Y-96890000D01*
X115435756Y-96677690D01*
X115377405Y-96472611D01*
X115377403Y-96472606D01*
X115377403Y-96472605D01*
X115282367Y-96281746D01*
X115153872Y-96111593D01*
X114996302Y-95967948D01*
X114815019Y-95855702D01*
X114815017Y-95855701D01*
X114715608Y-95817190D01*
X114616198Y-95778679D01*
X114419385Y-95741888D01*
X114357106Y-95710221D01*
X114321833Y-95649908D01*
X114324767Y-95580100D01*
X114364976Y-95522960D01*
X114419384Y-95498111D01*
X114616198Y-95461321D01*
X114815019Y-95384298D01*
X114996302Y-95272052D01*
X115153872Y-95128407D01*
X115282366Y-94958255D01*
X115321765Y-94879131D01*
X131183500Y-94879131D01*
X131183500Y-96160856D01*
X131183502Y-96160882D01*
X131186413Y-96185987D01*
X131186415Y-96185991D01*
X131231793Y-96288764D01*
X131231794Y-96288765D01*
X131311235Y-96368206D01*
X131414009Y-96413585D01*
X131439135Y-96416500D01*
X132720864Y-96416499D01*
X132720879Y-96416497D01*
X132720882Y-96416497D01*
X132745987Y-96413586D01*
X132745988Y-96413585D01*
X132745991Y-96413585D01*
X132848765Y-96368206D01*
X132928206Y-96288765D01*
X132973585Y-96185991D01*
X132976500Y-96160865D01*
X132976499Y-94879136D01*
X132976497Y-94879117D01*
X132973586Y-94854012D01*
X132973585Y-94854010D01*
X132973585Y-94854009D01*
X132928206Y-94751235D01*
X132848765Y-94671794D01*
X132848763Y-94671793D01*
X132745992Y-94626415D01*
X132720865Y-94623500D01*
X131439143Y-94623500D01*
X131439117Y-94623502D01*
X131414012Y-94626413D01*
X131414008Y-94626415D01*
X131311235Y-94671793D01*
X131231794Y-94751234D01*
X131186415Y-94854006D01*
X131186415Y-94854008D01*
X131183500Y-94879131D01*
X115321765Y-94879131D01*
X115321772Y-94879117D01*
X115377403Y-94767394D01*
X115377403Y-94767393D01*
X115377405Y-94767389D01*
X115435756Y-94562310D01*
X115455429Y-94350000D01*
X168573721Y-94350000D01*
X168593394Y-94562310D01*
X168647148Y-94751234D01*
X168651746Y-94767392D01*
X168651746Y-94767394D01*
X168746782Y-94958253D01*
X168746784Y-94958255D01*
X168875278Y-95128407D01*
X169032848Y-95272052D01*
X169214131Y-95384298D01*
X169412952Y-95461321D01*
X169622540Y-95500500D01*
X169622542Y-95500500D01*
X169835758Y-95500500D01*
X169835760Y-95500500D01*
X170045348Y-95461321D01*
X170244169Y-95384298D01*
X170425452Y-95272052D01*
X170583022Y-95128407D01*
X170711516Y-94958255D01*
X170750922Y-94879117D01*
X170806553Y-94767394D01*
X170806553Y-94767393D01*
X170806555Y-94767389D01*
X170864906Y-94562310D01*
X170875679Y-94446047D01*
X170901465Y-94381111D01*
X170943772Y-94350804D01*
X171052280Y-94350804D01*
X171088653Y-94371668D01*
X171120843Y-94433681D01*
X171122620Y-94446047D01*
X171133394Y-94562310D01*
X171187148Y-94751234D01*
X171191746Y-94767392D01*
X171191746Y-94767394D01*
X171286782Y-94958253D01*
X171286784Y-94958255D01*
X171415278Y-95128407D01*
X171572848Y-95272052D01*
X171754131Y-95384298D01*
X171952952Y-95461321D01*
X172162540Y-95500500D01*
X172162542Y-95500500D01*
X172375758Y-95500500D01*
X172375760Y-95500500D01*
X172585348Y-95461321D01*
X172784169Y-95384298D01*
X172965452Y-95272052D01*
X173123022Y-95128407D01*
X173251516Y-94958255D01*
X173290922Y-94879117D01*
X173346553Y-94767394D01*
X173346553Y-94767393D01*
X173346555Y-94767389D01*
X173404906Y-94562310D01*
X173411179Y-94494605D01*
X173436964Y-94429669D01*
X173493764Y-94388981D01*
X173563545Y-94385461D01*
X173624152Y-94420225D01*
X173656343Y-94482238D01*
X173658650Y-94506047D01*
X173658650Y-95244856D01*
X173658652Y-95244882D01*
X173661563Y-95269987D01*
X173661565Y-95269991D01*
X173706943Y-95372764D01*
X173706944Y-95372765D01*
X173786385Y-95452206D01*
X173889159Y-95497585D01*
X173914285Y-95500500D01*
X175704014Y-95500499D01*
X175704029Y-95500497D01*
X175704032Y-95500497D01*
X175729137Y-95497586D01*
X175729138Y-95497585D01*
X175729141Y-95497585D01*
X175831915Y-95452206D01*
X175911356Y-95372765D01*
X175956735Y-95269991D01*
X175959650Y-95244865D01*
X175959649Y-93455136D01*
X175959647Y-93455117D01*
X175956736Y-93430012D01*
X175956735Y-93430010D01*
X175956735Y-93430009D01*
X175911356Y-93327235D01*
X175831915Y-93247794D01*
X175811274Y-93238680D01*
X175729142Y-93202415D01*
X175704015Y-93199500D01*
X173914293Y-93199500D01*
X173914267Y-93199502D01*
X173889162Y-93202413D01*
X173889158Y-93202415D01*
X173786385Y-93247793D01*
X173706944Y-93327234D01*
X173661565Y-93430006D01*
X173661565Y-93430008D01*
X173658650Y-93455131D01*
X173658650Y-94193951D01*
X173638965Y-94260990D01*
X173586161Y-94306745D01*
X173517003Y-94316689D01*
X173453447Y-94287664D01*
X173415673Y-94228886D01*
X173411179Y-94205391D01*
X173404906Y-94137689D01*
X173390423Y-94086789D01*
X173346555Y-93932611D01*
X173346553Y-93932606D01*
X173346553Y-93932605D01*
X173251517Y-93741746D01*
X173123022Y-93571593D01*
X172995283Y-93455143D01*
X172965452Y-93427948D01*
X172784169Y-93315702D01*
X172784167Y-93315701D01*
X172684758Y-93277190D01*
X172585348Y-93238679D01*
X172375760Y-93199500D01*
X172162540Y-93199500D01*
X171952952Y-93238679D01*
X171952949Y-93238679D01*
X171952949Y-93238680D01*
X171754132Y-93315701D01*
X171754130Y-93315702D01*
X171572849Y-93427947D01*
X171415277Y-93571593D01*
X171286782Y-93741746D01*
X171191746Y-93932605D01*
X171191746Y-93932607D01*
X171133394Y-94137689D01*
X171122621Y-94253951D01*
X171096835Y-94318888D01*
X171052280Y-94350804D01*
X170943772Y-94350804D01*
X170946019Y-94349194D01*
X170909647Y-94328331D01*
X170877457Y-94266318D01*
X170875679Y-94253951D01*
X170870119Y-94193951D01*
X170864906Y-94137690D01*
X170806555Y-93932611D01*
X170806553Y-93932606D01*
X170806553Y-93932605D01*
X170711517Y-93741746D01*
X170583022Y-93571593D01*
X170455283Y-93455143D01*
X170425452Y-93427948D01*
X170244169Y-93315702D01*
X170244167Y-93315701D01*
X170144758Y-93277190D01*
X170045348Y-93238679D01*
X169835760Y-93199500D01*
X169622540Y-93199500D01*
X169412952Y-93238679D01*
X169412949Y-93238679D01*
X169412949Y-93238680D01*
X169214132Y-93315701D01*
X169214130Y-93315702D01*
X169032849Y-93427947D01*
X168875277Y-93571593D01*
X168746782Y-93741746D01*
X168651746Y-93932605D01*
X168651746Y-93932607D01*
X168651745Y-93932611D01*
X168593394Y-94137690D01*
X168573721Y-94350000D01*
X115455429Y-94350000D01*
X115435756Y-94137690D01*
X115377405Y-93932611D01*
X115377403Y-93932606D01*
X115377403Y-93932605D01*
X115282367Y-93741746D01*
X115153872Y-93571593D01*
X115026133Y-93455143D01*
X114996302Y-93427948D01*
X114815019Y-93315702D01*
X114815017Y-93315701D01*
X114715608Y-93277190D01*
X114616198Y-93238679D01*
X114443456Y-93206387D01*
X114381176Y-93174719D01*
X114345903Y-93114407D01*
X114348837Y-93044599D01*
X114389046Y-92987459D01*
X114453764Y-92961128D01*
X114466233Y-92960499D01*
X115194864Y-92960499D01*
X115194879Y-92960497D01*
X115194882Y-92960497D01*
X115219987Y-92957586D01*
X115219988Y-92957585D01*
X115219991Y-92957585D01*
X115322765Y-92912206D01*
X115402206Y-92832765D01*
X115447585Y-92729991D01*
X115450500Y-92704865D01*
X115450499Y-90915136D01*
X115450497Y-90915117D01*
X115447586Y-90890012D01*
X115447585Y-90890010D01*
X115447585Y-90890009D01*
X115402206Y-90787235D01*
X115322765Y-90707794D01*
X115322763Y-90707793D01*
X115219992Y-90662415D01*
X115194865Y-90659500D01*
X113405143Y-90659500D01*
X113405117Y-90659502D01*
X113380012Y-90662413D01*
X113380008Y-90662415D01*
X113277235Y-90707793D01*
X113197794Y-90787234D01*
X113152415Y-90890006D01*
X113152415Y-90890008D01*
X113149500Y-90915131D01*
X113149500Y-92704856D01*
X113149502Y-92704882D01*
X113152413Y-92729987D01*
X113152415Y-92729991D01*
X113197793Y-92832764D01*
X113197794Y-92832765D01*
X113277235Y-92912206D01*
X113380009Y-92957585D01*
X113405135Y-92960500D01*
X114133758Y-92960499D01*
X114200795Y-92980183D01*
X114246550Y-93032987D01*
X114256494Y-93102146D01*
X114227469Y-93165702D01*
X114168691Y-93203476D01*
X114156542Y-93206388D01*
X114100116Y-93216935D01*
X113983802Y-93238679D01*
X113983800Y-93238679D01*
X113983798Y-93238680D01*
X113784982Y-93315701D01*
X113784980Y-93315702D01*
X113603699Y-93427947D01*
X113446127Y-93571593D01*
X113317632Y-93741746D01*
X113222596Y-93932605D01*
X113222596Y-93932607D01*
X113222595Y-93932611D01*
X113164244Y-94137690D01*
X113144571Y-94350000D01*
X113164244Y-94562310D01*
X113217998Y-94751234D01*
X113222596Y-94767392D01*
X113222596Y-94767394D01*
X113317632Y-94958253D01*
X113317634Y-94958255D01*
X113446128Y-95128407D01*
X113603698Y-95272052D01*
X113784981Y-95384298D01*
X113983802Y-95461321D01*
X114180613Y-95498111D01*
X114242893Y-95529779D01*
X114278166Y-95590092D01*
X114275232Y-95659900D01*
X114235023Y-95717040D01*
X114180613Y-95741888D01*
X113983802Y-95778679D01*
X113983799Y-95778679D01*
X113983799Y-95778680D01*
X113784982Y-95855701D01*
X113784980Y-95855702D01*
X113603699Y-95967947D01*
X113446127Y-96111593D01*
X113317632Y-96281746D01*
X113222596Y-96472605D01*
X113222596Y-96472607D01*
X113164244Y-96677689D01*
X113144571Y-96889999D01*
X113144571Y-96890000D01*
X113164244Y-97102310D01*
X113222596Y-97307392D01*
X113222596Y-97307394D01*
X113317632Y-97498253D01*
X113317634Y-97498255D01*
X113446128Y-97668407D01*
X113603698Y-97812052D01*
X113784981Y-97924298D01*
X113983802Y-98001321D01*
X114180613Y-98038111D01*
X114242893Y-98069779D01*
X114278166Y-98130092D01*
X114275232Y-98199900D01*
X114235023Y-98257040D01*
X114180613Y-98281888D01*
X113983802Y-98318679D01*
X113983799Y-98318679D01*
X113983799Y-98318680D01*
X113784982Y-98395701D01*
X113784980Y-98395702D01*
X113603699Y-98507947D01*
X113446127Y-98651593D01*
X113317632Y-98821746D01*
X113222596Y-99012605D01*
X113222596Y-99012607D01*
X113164244Y-99217689D01*
X113158569Y-99278939D01*
X113144571Y-99430000D01*
X113164244Y-99642310D01*
X113194835Y-99749826D01*
X113222596Y-99847392D01*
X113222596Y-99847394D01*
X113317632Y-100038253D01*
X113446127Y-100208406D01*
X113446128Y-100208407D01*
X113603698Y-100352052D01*
X113784981Y-100464298D01*
X113813961Y-100475525D01*
X113869362Y-100518095D01*
X113892954Y-100583861D01*
X113877244Y-100651942D01*
X113827222Y-100700722D01*
X113821573Y-100703533D01*
X113622422Y-100796399D01*
X113622420Y-100796400D01*
X113428926Y-100931886D01*
X113428920Y-100931891D01*
X113261891Y-101098920D01*
X113261886Y-101098926D01*
X113126400Y-101292420D01*
X113126399Y-101292422D01*
X113026570Y-101506507D01*
X113026567Y-101506513D01*
X112969364Y-101719999D01*
X107660500Y-101719999D01*
X107660500Y-89144000D01*
X121624675Y-89144000D01*
X121643947Y-89388874D01*
X121701287Y-89627714D01*
X121795284Y-89854643D01*
X121923621Y-90064070D01*
X121923622Y-90064072D01*
X121923625Y-90064075D01*
X122083148Y-90250852D01*
X122227732Y-90374338D01*
X122269927Y-90410377D01*
X122269929Y-90410378D01*
X122479356Y-90538715D01*
X122706285Y-90632712D01*
X122706286Y-90632712D01*
X122706288Y-90632713D01*
X122945129Y-90690053D01*
X123190000Y-90709325D01*
X123434871Y-90690053D01*
X123643359Y-90640000D01*
X131178562Y-90640000D01*
X131198261Y-90827419D01*
X131198262Y-90827422D01*
X131256493Y-91006645D01*
X131256495Y-91006648D01*
X131350721Y-91169852D01*
X131394646Y-91218636D01*
X131476814Y-91309894D01*
X131476821Y-91309900D01*
X131629276Y-91420665D01*
X131629277Y-91420665D01*
X131629281Y-91420668D01*
X131769684Y-91483179D01*
X131801435Y-91497316D01*
X131801440Y-91497318D01*
X131985774Y-91536500D01*
X132174226Y-91536500D01*
X132358560Y-91497318D01*
X132530719Y-91420668D01*
X132683180Y-91309899D01*
X132690293Y-91302000D01*
X132710500Y-91279556D01*
X132809279Y-91169852D01*
X132903505Y-91006648D01*
X132961739Y-90827419D01*
X132981438Y-90640000D01*
X132961739Y-90452581D01*
X132903505Y-90273352D01*
X132809279Y-90110148D01*
X132759889Y-90055295D01*
X132683185Y-89970105D01*
X132683178Y-89970099D01*
X132530723Y-89859334D01*
X132530720Y-89859332D01*
X132530719Y-89859332D01*
X132468206Y-89831499D01*
X132358564Y-89782683D01*
X132358559Y-89782681D01*
X132174226Y-89743500D01*
X131985774Y-89743500D01*
X131801440Y-89782681D01*
X131801435Y-89782683D01*
X131629281Y-89859332D01*
X131629276Y-89859334D01*
X131476821Y-89970099D01*
X131476814Y-89970105D01*
X131350720Y-90110149D01*
X131256493Y-90273354D01*
X131211973Y-90410378D01*
X131198261Y-90452581D01*
X131178562Y-90640000D01*
X123643359Y-90640000D01*
X123673712Y-90632713D01*
X123900643Y-90538715D01*
X124110075Y-90410375D01*
X124296852Y-90250852D01*
X124456375Y-90064075D01*
X124584715Y-89854643D01*
X124678713Y-89627712D01*
X124736053Y-89388871D01*
X124745409Y-89269999D01*
X147934722Y-89269999D01*
X147934722Y-89270000D01*
X147953762Y-89426818D01*
X148009780Y-89574523D01*
X148009781Y-89574524D01*
X148099518Y-89704532D01*
X148104491Y-89710145D01*
X148103044Y-89711426D01*
X148134850Y-89762120D01*
X148139500Y-89795759D01*
X148139500Y-90776240D01*
X148119815Y-90843279D01*
X148104153Y-90861556D01*
X148104491Y-90861856D01*
X148099515Y-90867472D01*
X148009781Y-90997475D01*
X148009780Y-90997476D01*
X147953762Y-91145181D01*
X147934722Y-91301999D01*
X147934722Y-91302000D01*
X147953762Y-91458818D01*
X148009780Y-91606523D01*
X148099517Y-91736530D01*
X148217760Y-91841283D01*
X148217762Y-91841284D01*
X148357634Y-91914696D01*
X148511014Y-91952500D01*
X148511015Y-91952500D01*
X148668985Y-91952500D01*
X148822365Y-91914696D01*
X148962240Y-91841283D01*
X149080483Y-91736530D01*
X149122950Y-91675006D01*
X149177232Y-91631015D01*
X149246681Y-91623355D01*
X149309246Y-91654458D01*
X149327050Y-91675006D01*
X149369514Y-91736527D01*
X149369516Y-91736529D01*
X149369517Y-91736530D01*
X149487760Y-91841283D01*
X149487762Y-91841284D01*
X149627634Y-91914696D01*
X149781014Y-91952500D01*
X149781015Y-91952500D01*
X149938985Y-91952500D01*
X150092365Y-91914696D01*
X150232240Y-91841283D01*
X150350483Y-91736530D01*
X150440220Y-91606523D01*
X150496237Y-91458818D01*
X150515278Y-91302000D01*
X150499233Y-91169852D01*
X150496237Y-91145181D01*
X150443698Y-91006648D01*
X150440220Y-90997477D01*
X150350483Y-90867470D01*
X150350479Y-90867466D01*
X150345509Y-90861856D01*
X150346953Y-90860576D01*
X150315145Y-90809860D01*
X150310500Y-90776240D01*
X150310500Y-89795759D01*
X150330185Y-89728720D01*
X150345846Y-89710444D01*
X150345509Y-89710145D01*
X150350481Y-89704532D01*
X150350481Y-89704531D01*
X150350483Y-89704530D01*
X150440220Y-89574523D01*
X150496237Y-89426818D01*
X150515278Y-89270000D01*
X150496237Y-89113182D01*
X150440220Y-88965477D01*
X150350483Y-88835470D01*
X150232240Y-88730717D01*
X150232238Y-88730716D01*
X150232237Y-88730715D01*
X150092365Y-88657303D01*
X149938986Y-88619500D01*
X149938985Y-88619500D01*
X149781015Y-88619500D01*
X149781014Y-88619500D01*
X149627634Y-88657303D01*
X149487762Y-88730715D01*
X149369516Y-88835471D01*
X149327050Y-88896994D01*
X149272767Y-88940984D01*
X149203318Y-88948644D01*
X149140754Y-88917541D01*
X149122950Y-88896994D01*
X149112828Y-88882330D01*
X149080483Y-88835470D01*
X148962240Y-88730717D01*
X148962238Y-88730716D01*
X148962237Y-88730715D01*
X148822365Y-88657303D01*
X148668986Y-88619500D01*
X148668985Y-88619500D01*
X148511015Y-88619500D01*
X148511014Y-88619500D01*
X148357634Y-88657303D01*
X148217762Y-88730715D01*
X148099516Y-88835471D01*
X148009781Y-88965475D01*
X148009780Y-88965476D01*
X147953762Y-89113181D01*
X147934722Y-89269999D01*
X124745409Y-89269999D01*
X124755325Y-89144000D01*
X124736053Y-88899129D01*
X124678713Y-88660288D01*
X124584715Y-88433357D01*
X124584715Y-88433356D01*
X124456378Y-88223929D01*
X124456377Y-88223927D01*
X124420338Y-88181732D01*
X124296852Y-88037148D01*
X124173364Y-87931679D01*
X124110072Y-87877622D01*
X124110070Y-87877621D01*
X123900643Y-87749284D01*
X123673714Y-87655287D01*
X123434874Y-87597947D01*
X123190000Y-87578675D01*
X122945125Y-87597947D01*
X122706285Y-87655287D01*
X122479356Y-87749284D01*
X122269929Y-87877621D01*
X122269927Y-87877622D01*
X122083148Y-88037148D01*
X121923622Y-88223927D01*
X121923621Y-88223929D01*
X121795284Y-88433356D01*
X121701287Y-88660285D01*
X121643947Y-88899125D01*
X121624675Y-89144000D01*
X107660500Y-89144000D01*
X107660500Y-86730000D01*
X169024571Y-86730000D01*
X169044244Y-86942310D01*
X169097675Y-87130099D01*
X169102596Y-87147392D01*
X169102596Y-87147394D01*
X169197632Y-87338253D01*
X169269385Y-87433268D01*
X169326128Y-87508407D01*
X169483698Y-87652052D01*
X169664981Y-87764298D01*
X169863802Y-87841321D01*
X170073390Y-87880500D01*
X170073392Y-87880500D01*
X170286608Y-87880500D01*
X170286610Y-87880500D01*
X170496198Y-87841321D01*
X170695019Y-87764298D01*
X170876302Y-87652052D01*
X171033872Y-87508407D01*
X171162366Y-87338255D01*
X171216270Y-87230000D01*
X171257403Y-87147394D01*
X171257403Y-87147393D01*
X171257405Y-87147389D01*
X171315756Y-86942310D01*
X171326529Y-86826047D01*
X171352315Y-86761111D01*
X171394622Y-86730804D01*
X171503130Y-86730804D01*
X171539503Y-86751668D01*
X171571693Y-86813681D01*
X171573470Y-86826047D01*
X171584244Y-86942310D01*
X171637675Y-87130099D01*
X171642596Y-87147392D01*
X171642596Y-87147394D01*
X171737632Y-87338253D01*
X171809385Y-87433268D01*
X171866128Y-87508407D01*
X172023698Y-87652052D01*
X172204981Y-87764298D01*
X172403802Y-87841321D01*
X172613390Y-87880500D01*
X172613392Y-87880500D01*
X172826608Y-87880500D01*
X172826610Y-87880500D01*
X173036198Y-87841321D01*
X173235019Y-87764298D01*
X173416302Y-87652052D01*
X173573872Y-87508407D01*
X173687047Y-87358540D01*
X173743155Y-87316905D01*
X173812867Y-87312214D01*
X173874049Y-87345956D01*
X173907276Y-87407419D01*
X173910000Y-87433268D01*
X173910000Y-87627844D01*
X173916401Y-87687372D01*
X173916403Y-87687379D01*
X173966645Y-87822086D01*
X173966649Y-87822093D01*
X174052809Y-87937187D01*
X174052812Y-87937190D01*
X174167906Y-88023350D01*
X174167913Y-88023354D01*
X174302620Y-88073596D01*
X174302627Y-88073598D01*
X174362155Y-88079999D01*
X174362172Y-88080000D01*
X175010000Y-88080000D01*
X175010000Y-87163012D01*
X175067007Y-87195925D01*
X175194174Y-87230000D01*
X175325826Y-87230000D01*
X175452993Y-87195925D01*
X175510000Y-87163012D01*
X175510000Y-88080000D01*
X176157828Y-88080000D01*
X176157844Y-88079999D01*
X176217372Y-88073598D01*
X176217379Y-88073596D01*
X176352086Y-88023354D01*
X176352093Y-88023350D01*
X176467187Y-87937190D01*
X176467190Y-87937187D01*
X176553350Y-87822093D01*
X176553354Y-87822086D01*
X176603596Y-87687379D01*
X176603598Y-87687372D01*
X176609999Y-87627844D01*
X176610000Y-87627827D01*
X176610000Y-86980000D01*
X175693012Y-86980000D01*
X175725925Y-86922993D01*
X175760000Y-86795826D01*
X175760000Y-86664174D01*
X175725925Y-86537007D01*
X175693012Y-86480000D01*
X176610000Y-86480000D01*
X176610000Y-85832172D01*
X176609999Y-85832155D01*
X176603598Y-85772627D01*
X176603596Y-85772620D01*
X176553354Y-85637913D01*
X176553350Y-85637906D01*
X176467190Y-85522812D01*
X176467187Y-85522809D01*
X176352093Y-85436649D01*
X176352086Y-85436645D01*
X176217379Y-85386403D01*
X176217372Y-85386401D01*
X176157844Y-85380000D01*
X175510000Y-85380000D01*
X175510000Y-86296988D01*
X175452993Y-86264075D01*
X175325826Y-86230000D01*
X175194174Y-86230000D01*
X175067007Y-86264075D01*
X175010000Y-86296988D01*
X175010000Y-85380000D01*
X174362155Y-85380000D01*
X174302627Y-85386401D01*
X174302620Y-85386403D01*
X174167913Y-85436645D01*
X174167906Y-85436649D01*
X174052812Y-85522809D01*
X174052809Y-85522812D01*
X173966649Y-85637906D01*
X173966645Y-85637913D01*
X173916403Y-85772620D01*
X173916401Y-85772627D01*
X173910000Y-85832155D01*
X173910000Y-86026731D01*
X173890315Y-86093770D01*
X173837511Y-86139525D01*
X173768353Y-86149469D01*
X173704797Y-86120444D01*
X173687046Y-86101458D01*
X173573872Y-85951593D01*
X173553161Y-85932712D01*
X173416302Y-85807948D01*
X173235019Y-85695702D01*
X173235017Y-85695701D01*
X173085829Y-85637906D01*
X173036198Y-85618679D01*
X172826610Y-85579500D01*
X172613390Y-85579500D01*
X172403802Y-85618679D01*
X172403799Y-85618679D01*
X172403799Y-85618680D01*
X172204982Y-85695701D01*
X172204980Y-85695702D01*
X172023699Y-85807947D01*
X171866127Y-85951593D01*
X171737632Y-86121746D01*
X171642596Y-86312605D01*
X171642596Y-86312607D01*
X171584244Y-86517689D01*
X171573471Y-86633951D01*
X171547685Y-86698888D01*
X171503130Y-86730804D01*
X171394622Y-86730804D01*
X171396869Y-86729194D01*
X171360497Y-86708331D01*
X171328307Y-86646318D01*
X171326529Y-86633951D01*
X171325849Y-86626613D01*
X171315756Y-86517690D01*
X171257405Y-86312611D01*
X171257403Y-86312606D01*
X171257403Y-86312605D01*
X171162367Y-86121746D01*
X171033872Y-85951593D01*
X171013161Y-85932712D01*
X170876302Y-85807948D01*
X170695019Y-85695702D01*
X170695017Y-85695701D01*
X170545829Y-85637906D01*
X170496198Y-85618679D01*
X170286610Y-85579500D01*
X170073390Y-85579500D01*
X169863802Y-85618679D01*
X169863799Y-85618679D01*
X169863799Y-85618680D01*
X169664982Y-85695701D01*
X169664980Y-85695702D01*
X169483699Y-85807947D01*
X169326127Y-85951593D01*
X169197632Y-86121746D01*
X169102596Y-86312605D01*
X169102596Y-86312607D01*
X169044244Y-86517689D01*
X169030671Y-86664174D01*
X169024571Y-86730000D01*
X107660500Y-86730000D01*
X107660500Y-84444000D01*
X121624675Y-84444000D01*
X121643947Y-84688874D01*
X121701287Y-84927714D01*
X121795284Y-85154643D01*
X121923621Y-85364070D01*
X121923622Y-85364072D01*
X121923625Y-85364075D01*
X122083148Y-85550852D01*
X122185075Y-85637906D01*
X122269927Y-85710377D01*
X122269929Y-85710378D01*
X122479356Y-85838715D01*
X122706285Y-85932712D01*
X122706286Y-85932712D01*
X122706288Y-85932713D01*
X122945129Y-85990053D01*
X123190000Y-86009325D01*
X123434871Y-85990053D01*
X123673712Y-85932713D01*
X123900643Y-85838715D01*
X124110075Y-85710375D01*
X124296852Y-85550852D01*
X124456375Y-85364075D01*
X124584715Y-85154643D01*
X124678713Y-84927712D01*
X124736053Y-84688871D01*
X124755325Y-84444000D01*
X124736053Y-84199129D01*
X124678713Y-83960288D01*
X124584715Y-83733357D01*
X124584715Y-83733356D01*
X124456378Y-83523929D01*
X124456377Y-83523927D01*
X124420338Y-83481732D01*
X124296852Y-83337148D01*
X124173364Y-83231679D01*
X124110072Y-83177622D01*
X124110070Y-83177621D01*
X123900643Y-83049284D01*
X123673714Y-82955287D01*
X123434874Y-82897947D01*
X123190000Y-82878675D01*
X122945125Y-82897947D01*
X122706285Y-82955287D01*
X122479356Y-83049284D01*
X122269929Y-83177621D01*
X122269927Y-83177622D01*
X122083148Y-83337148D01*
X121923622Y-83523927D01*
X121923621Y-83523929D01*
X121795284Y-83733356D01*
X121701287Y-83960285D01*
X121643947Y-84199125D01*
X121624675Y-84444000D01*
X107660500Y-84444000D01*
X107660500Y-78439131D01*
X121629500Y-78439131D01*
X121629500Y-81048856D01*
X121629502Y-81048882D01*
X121632413Y-81073987D01*
X121632415Y-81073991D01*
X121677793Y-81176764D01*
X121677794Y-81176765D01*
X121757235Y-81256206D01*
X121860009Y-81301585D01*
X121885135Y-81304500D01*
X124494864Y-81304499D01*
X124494879Y-81304497D01*
X124494882Y-81304497D01*
X124519987Y-81301586D01*
X124519988Y-81301585D01*
X124519991Y-81301585D01*
X124622765Y-81256206D01*
X124702206Y-81176765D01*
X124747585Y-81073991D01*
X124750500Y-81048865D01*
X124750500Y-80380000D01*
X169009571Y-80380000D01*
X169029244Y-80592310D01*
X169082675Y-80780099D01*
X169087596Y-80797392D01*
X169087596Y-80797394D01*
X169182632Y-80988253D01*
X169247376Y-81073987D01*
X169311128Y-81158407D01*
X169468698Y-81302052D01*
X169649981Y-81414298D01*
X169848802Y-81491321D01*
X170058390Y-81530500D01*
X170058392Y-81530500D01*
X170271608Y-81530500D01*
X170271610Y-81530500D01*
X170481198Y-81491321D01*
X170680019Y-81414298D01*
X170861302Y-81302052D01*
X171018872Y-81158407D01*
X171147366Y-80988255D01*
X171201270Y-80880000D01*
X171242403Y-80797394D01*
X171242403Y-80797393D01*
X171242405Y-80797389D01*
X171300756Y-80592310D01*
X171311529Y-80476047D01*
X171337315Y-80411111D01*
X171379622Y-80380804D01*
X171488130Y-80380804D01*
X171524503Y-80401668D01*
X171556693Y-80463681D01*
X171558470Y-80476047D01*
X171569244Y-80592310D01*
X171622675Y-80780099D01*
X171627596Y-80797392D01*
X171627596Y-80797394D01*
X171722632Y-80988253D01*
X171787376Y-81073987D01*
X171851128Y-81158407D01*
X172008698Y-81302052D01*
X172189981Y-81414298D01*
X172388802Y-81491321D01*
X172598390Y-81530500D01*
X172598392Y-81530500D01*
X172811608Y-81530500D01*
X172811610Y-81530500D01*
X173021198Y-81491321D01*
X173220019Y-81414298D01*
X173401302Y-81302052D01*
X173558872Y-81158407D01*
X173672047Y-81008540D01*
X173728155Y-80966905D01*
X173797867Y-80962214D01*
X173859049Y-80995956D01*
X173892276Y-81057419D01*
X173895000Y-81083268D01*
X173895000Y-81277844D01*
X173901401Y-81337372D01*
X173901403Y-81337379D01*
X173951645Y-81472086D01*
X173951649Y-81472093D01*
X174037809Y-81587187D01*
X174037812Y-81587190D01*
X174152906Y-81673350D01*
X174152913Y-81673354D01*
X174287620Y-81723596D01*
X174287627Y-81723598D01*
X174347155Y-81729999D01*
X174347172Y-81730000D01*
X174995000Y-81730000D01*
X174995000Y-80813012D01*
X175052007Y-80845925D01*
X175179174Y-80880000D01*
X175310826Y-80880000D01*
X175437993Y-80845925D01*
X175495000Y-80813012D01*
X175495000Y-81730000D01*
X176142828Y-81730000D01*
X176142844Y-81729999D01*
X176202372Y-81723598D01*
X176202379Y-81723596D01*
X176337086Y-81673354D01*
X176337093Y-81673350D01*
X176452187Y-81587190D01*
X176452190Y-81587187D01*
X176538350Y-81472093D01*
X176538354Y-81472086D01*
X176588596Y-81337379D01*
X176588598Y-81337372D01*
X176594999Y-81277844D01*
X176595000Y-81277827D01*
X176595000Y-80630000D01*
X175678012Y-80630000D01*
X175710925Y-80572993D01*
X175745000Y-80445826D01*
X175745000Y-80314174D01*
X175710925Y-80187007D01*
X175678012Y-80130000D01*
X176595000Y-80130000D01*
X176595000Y-79482172D01*
X176594999Y-79482155D01*
X176588598Y-79422627D01*
X176588596Y-79422620D01*
X176538354Y-79287913D01*
X176538350Y-79287906D01*
X176452190Y-79172812D01*
X176452187Y-79172809D01*
X176337093Y-79086649D01*
X176337086Y-79086645D01*
X176202379Y-79036403D01*
X176202372Y-79036401D01*
X176142844Y-79030000D01*
X175495000Y-79030000D01*
X175495000Y-79946988D01*
X175437993Y-79914075D01*
X175310826Y-79880000D01*
X175179174Y-79880000D01*
X175052007Y-79914075D01*
X174995000Y-79946988D01*
X174995000Y-79030000D01*
X174347155Y-79030000D01*
X174287627Y-79036401D01*
X174287620Y-79036403D01*
X174152913Y-79086645D01*
X174152906Y-79086649D01*
X174037812Y-79172809D01*
X174037809Y-79172812D01*
X173951649Y-79287906D01*
X173951645Y-79287913D01*
X173901403Y-79422620D01*
X173901401Y-79422627D01*
X173895000Y-79482155D01*
X173895000Y-79676731D01*
X173875315Y-79743770D01*
X173822511Y-79789525D01*
X173753353Y-79799469D01*
X173689797Y-79770444D01*
X173672046Y-79751458D01*
X173558872Y-79601593D01*
X173477480Y-79527394D01*
X173401302Y-79457948D01*
X173220019Y-79345702D01*
X173220017Y-79345701D01*
X173070829Y-79287906D01*
X173021198Y-79268679D01*
X172811610Y-79229500D01*
X172598390Y-79229500D01*
X172388802Y-79268679D01*
X172388799Y-79268679D01*
X172388799Y-79268680D01*
X172189982Y-79345701D01*
X172189980Y-79345702D01*
X172008699Y-79457947D01*
X171851127Y-79601593D01*
X171722632Y-79771746D01*
X171627596Y-79962605D01*
X171627596Y-79962607D01*
X171569244Y-80167689D01*
X171558471Y-80283951D01*
X171532685Y-80348888D01*
X171488130Y-80380804D01*
X171379622Y-80380804D01*
X171381869Y-80379194D01*
X171345497Y-80358331D01*
X171313307Y-80296318D01*
X171311529Y-80283951D01*
X171309086Y-80257584D01*
X171300756Y-80167690D01*
X171242405Y-79962611D01*
X171242403Y-79962606D01*
X171242403Y-79962605D01*
X171147367Y-79771746D01*
X171018872Y-79601593D01*
X170937480Y-79527394D01*
X170861302Y-79457948D01*
X170680019Y-79345702D01*
X170680017Y-79345701D01*
X170530829Y-79287906D01*
X170481198Y-79268679D01*
X170271610Y-79229500D01*
X170058390Y-79229500D01*
X169848802Y-79268679D01*
X169848799Y-79268679D01*
X169848799Y-79268680D01*
X169649982Y-79345701D01*
X169649980Y-79345702D01*
X169468699Y-79457947D01*
X169311127Y-79601593D01*
X169182632Y-79771746D01*
X169087596Y-79962605D01*
X169087596Y-79962607D01*
X169029244Y-80167689D01*
X169015671Y-80314174D01*
X169009571Y-80380000D01*
X124750500Y-80380000D01*
X124750499Y-78439136D01*
X124750497Y-78439117D01*
X124747586Y-78414012D01*
X124747585Y-78414010D01*
X124747585Y-78414009D01*
X124702206Y-78311235D01*
X124622765Y-78231794D01*
X124585027Y-78215131D01*
X147439500Y-78215131D01*
X147439500Y-80004856D01*
X147439502Y-80004882D01*
X147442413Y-80029987D01*
X147442415Y-80029991D01*
X147487793Y-80132764D01*
X147487794Y-80132765D01*
X147567235Y-80212206D01*
X147670009Y-80257585D01*
X147695135Y-80260500D01*
X149484864Y-80260499D01*
X149484879Y-80260497D01*
X149484882Y-80260497D01*
X149509987Y-80257586D01*
X149509988Y-80257585D01*
X149509991Y-80257585D01*
X149612765Y-80212206D01*
X149692206Y-80132765D01*
X149737585Y-80029991D01*
X149740500Y-80004865D01*
X149740499Y-79266046D01*
X149760183Y-79199009D01*
X149812987Y-79153254D01*
X149882146Y-79143310D01*
X149945702Y-79172335D01*
X149983476Y-79231113D01*
X149987970Y-79254606D01*
X149994244Y-79322310D01*
X150039729Y-79482172D01*
X150052596Y-79527392D01*
X150052596Y-79527394D01*
X150147632Y-79718253D01*
X150269779Y-79880000D01*
X150276128Y-79888407D01*
X150433698Y-80032052D01*
X150614981Y-80144298D01*
X150813802Y-80221321D01*
X151023390Y-80260500D01*
X151023392Y-80260500D01*
X151236608Y-80260500D01*
X151236610Y-80260500D01*
X151446198Y-80221321D01*
X151645019Y-80144298D01*
X151826302Y-80032052D01*
X151983872Y-79888407D01*
X152112366Y-79718255D01*
X152207405Y-79527389D01*
X152265756Y-79322310D01*
X152276529Y-79206047D01*
X152302315Y-79141111D01*
X152344622Y-79110804D01*
X152453130Y-79110804D01*
X152489503Y-79131668D01*
X152521693Y-79193681D01*
X152523470Y-79206047D01*
X152534244Y-79322310D01*
X152579729Y-79482172D01*
X152592596Y-79527392D01*
X152592596Y-79527394D01*
X152687632Y-79718253D01*
X152809779Y-79880000D01*
X152816128Y-79888407D01*
X152973698Y-80032052D01*
X153154981Y-80144298D01*
X153353802Y-80221321D01*
X153563390Y-80260500D01*
X153563392Y-80260500D01*
X153776608Y-80260500D01*
X153776610Y-80260500D01*
X153986198Y-80221321D01*
X154185019Y-80144298D01*
X154366302Y-80032052D01*
X154523872Y-79888407D01*
X154652366Y-79718255D01*
X154747405Y-79527389D01*
X154805756Y-79322310D01*
X154825429Y-79110000D01*
X154805756Y-78897690D01*
X154747405Y-78692611D01*
X154747403Y-78692606D01*
X154747403Y-78692605D01*
X154652367Y-78501746D01*
X154523872Y-78331593D01*
X154396133Y-78215143D01*
X154366302Y-78187948D01*
X154185019Y-78075702D01*
X154185017Y-78075701D01*
X154085608Y-78037190D01*
X153986198Y-77998679D01*
X153776610Y-77959500D01*
X153563390Y-77959500D01*
X153353802Y-77998679D01*
X153353799Y-77998679D01*
X153353799Y-77998680D01*
X153154982Y-78075701D01*
X153154980Y-78075702D01*
X152973699Y-78187947D01*
X152816127Y-78331593D01*
X152687632Y-78501746D01*
X152592596Y-78692605D01*
X152592596Y-78692607D01*
X152534244Y-78897689D01*
X152523471Y-79013951D01*
X152497685Y-79078888D01*
X152453130Y-79110804D01*
X152344622Y-79110804D01*
X152346869Y-79109194D01*
X152310497Y-79088331D01*
X152278307Y-79026318D01*
X152276529Y-79013951D01*
X152273175Y-78977759D01*
X152265756Y-78897690D01*
X152207405Y-78692611D01*
X152207403Y-78692606D01*
X152207403Y-78692605D01*
X152112367Y-78501746D01*
X151983872Y-78331593D01*
X151856133Y-78215143D01*
X151826302Y-78187948D01*
X151645019Y-78075702D01*
X151645017Y-78075701D01*
X151545608Y-78037190D01*
X151446198Y-77998679D01*
X151236610Y-77959500D01*
X151023390Y-77959500D01*
X150813802Y-77998679D01*
X150813799Y-77998679D01*
X150813799Y-77998680D01*
X150614982Y-78075701D01*
X150614980Y-78075702D01*
X150433699Y-78187947D01*
X150276127Y-78331593D01*
X150147632Y-78501746D01*
X150052596Y-78692605D01*
X150052596Y-78692607D01*
X149994244Y-78897689D01*
X149987970Y-78965394D01*
X149962183Y-79030331D01*
X149905383Y-79071018D01*
X149835602Y-79074538D01*
X149774995Y-79039772D01*
X149742806Y-78977759D01*
X149740499Y-78953952D01*
X149740499Y-78215143D01*
X149740499Y-78215136D01*
X149740497Y-78215117D01*
X149737586Y-78190012D01*
X149737585Y-78190010D01*
X149737585Y-78190009D01*
X149692206Y-78087235D01*
X149612765Y-78007794D01*
X149592124Y-77998680D01*
X149509992Y-77962415D01*
X149484865Y-77959500D01*
X147695143Y-77959500D01*
X147695117Y-77959502D01*
X147670012Y-77962413D01*
X147670008Y-77962415D01*
X147567235Y-78007793D01*
X147487794Y-78087234D01*
X147442415Y-78190006D01*
X147442415Y-78190008D01*
X147439500Y-78215131D01*
X124585027Y-78215131D01*
X124584995Y-78215117D01*
X124519992Y-78186415D01*
X124494865Y-78183500D01*
X121885143Y-78183500D01*
X121885117Y-78183502D01*
X121860012Y-78186413D01*
X121860008Y-78186415D01*
X121757235Y-78231793D01*
X121677794Y-78311234D01*
X121632415Y-78414006D01*
X121632415Y-78414008D01*
X121629500Y-78439131D01*
X107660500Y-78439131D01*
X107660500Y-75554500D01*
X107680185Y-75487461D01*
X107732989Y-75441706D01*
X107784500Y-75430500D01*
X182535500Y-75430500D01*
X182602539Y-75450185D01*
G37*
G04 #@! TD.AperFunction*
M02*
