%TF.GenerationSoftware,KiCad,Pcbnew,8.0.6*%
%TF.CreationDate,2025-01-30T10:53:47+01:00*%
%TF.ProjectId,colorsorter_schematic,636f6c6f-7273-46f7-9274-65725f736368,rev?*%
%TF.SameCoordinates,Original*%
%TF.FileFunction,Drillmap*%
%TF.FilePolarity,Positive*%
%FSLAX45Y45*%
G04 Gerber Fmt 4.5, Leading zero omitted, Abs format (unit mm)*
G04 Created by KiCad (PCBNEW 8.0.6) date 2025-01-30 10:53:47*
%MOMM*%
%LPD*%
G01*
G04 APERTURE LIST*
%ADD10C,0.050000*%
%ADD11C,0.200000*%
G04 APERTURE END LIST*
D10*
X10716000Y-7593000D02*
X10716000Y-7493000D01*
X18316000Y-7493000D02*
X18316000Y-12693000D01*
X18316000Y-12693000D02*
X10716000Y-12693000D01*
X10716000Y-7493000D02*
X18316000Y-7493000D01*
X10716000Y-12693000D02*
X10716000Y-7593000D01*
D11*
X10974277Y-13006984D02*
X10974277Y-12806984D01*
X10974277Y-12806984D02*
X11021896Y-12806984D01*
X11021896Y-12806984D02*
X11050467Y-12816508D01*
X11050467Y-12816508D02*
X11069515Y-12835555D01*
X11069515Y-12835555D02*
X11079039Y-12854603D01*
X11079039Y-12854603D02*
X11088563Y-12892698D01*
X11088563Y-12892698D02*
X11088563Y-12921269D01*
X11088563Y-12921269D02*
X11079039Y-12959365D01*
X11079039Y-12959365D02*
X11069515Y-12978412D01*
X11069515Y-12978412D02*
X11050467Y-12997460D01*
X11050467Y-12997460D02*
X11021896Y-13006984D01*
X11021896Y-13006984D02*
X10974277Y-13006984D01*
X11174277Y-13006984D02*
X11174277Y-12873650D01*
X11174277Y-12911746D02*
X11183801Y-12892698D01*
X11183801Y-12892698D02*
X11193324Y-12883174D01*
X11193324Y-12883174D02*
X11212372Y-12873650D01*
X11212372Y-12873650D02*
X11231420Y-12873650D01*
X11298086Y-13006984D02*
X11298086Y-12873650D01*
X11298086Y-12806984D02*
X11288562Y-12816508D01*
X11288562Y-12816508D02*
X11298086Y-12826031D01*
X11298086Y-12826031D02*
X11307610Y-12816508D01*
X11307610Y-12816508D02*
X11298086Y-12806984D01*
X11298086Y-12806984D02*
X11298086Y-12826031D01*
X11421896Y-13006984D02*
X11402848Y-12997460D01*
X11402848Y-12997460D02*
X11393324Y-12978412D01*
X11393324Y-12978412D02*
X11393324Y-12806984D01*
X11526658Y-13006984D02*
X11507610Y-12997460D01*
X11507610Y-12997460D02*
X11498086Y-12978412D01*
X11498086Y-12978412D02*
X11498086Y-12806984D01*
X11755229Y-13006984D02*
X11755229Y-12806984D01*
X11755229Y-12806984D02*
X11821896Y-12949841D01*
X11821896Y-12949841D02*
X11888562Y-12806984D01*
X11888562Y-12806984D02*
X11888562Y-13006984D01*
X12069515Y-13006984D02*
X12069515Y-12902222D01*
X12069515Y-12902222D02*
X12059991Y-12883174D01*
X12059991Y-12883174D02*
X12040943Y-12873650D01*
X12040943Y-12873650D02*
X12002848Y-12873650D01*
X12002848Y-12873650D02*
X11983801Y-12883174D01*
X12069515Y-12997460D02*
X12050467Y-13006984D01*
X12050467Y-13006984D02*
X12002848Y-13006984D01*
X12002848Y-13006984D02*
X11983801Y-12997460D01*
X11983801Y-12997460D02*
X11974277Y-12978412D01*
X11974277Y-12978412D02*
X11974277Y-12959365D01*
X11974277Y-12959365D02*
X11983801Y-12940317D01*
X11983801Y-12940317D02*
X12002848Y-12930793D01*
X12002848Y-12930793D02*
X12050467Y-12930793D01*
X12050467Y-12930793D02*
X12069515Y-12921269D01*
X12164753Y-12873650D02*
X12164753Y-13073650D01*
X12164753Y-12883174D02*
X12183801Y-12873650D01*
X12183801Y-12873650D02*
X12221896Y-12873650D01*
X12221896Y-12873650D02*
X12240943Y-12883174D01*
X12240943Y-12883174D02*
X12250467Y-12892698D01*
X12250467Y-12892698D02*
X12259991Y-12911746D01*
X12259991Y-12911746D02*
X12259991Y-12968888D01*
X12259991Y-12968888D02*
X12250467Y-12987936D01*
X12250467Y-12987936D02*
X12240943Y-12997460D01*
X12240943Y-12997460D02*
X12221896Y-13006984D01*
X12221896Y-13006984D02*
X12183801Y-13006984D01*
X12183801Y-13006984D02*
X12164753Y-12997460D01*
X12345705Y-12987936D02*
X12355229Y-12997460D01*
X12355229Y-12997460D02*
X12345705Y-13006984D01*
X12345705Y-13006984D02*
X12336182Y-12997460D01*
X12336182Y-12997460D02*
X12345705Y-12987936D01*
X12345705Y-12987936D02*
X12345705Y-13006984D01*
X12345705Y-12883174D02*
X12355229Y-12892698D01*
X12355229Y-12892698D02*
X12345705Y-12902222D01*
X12345705Y-12902222D02*
X12336182Y-12892698D01*
X12336182Y-12892698D02*
X12345705Y-12883174D01*
X12345705Y-12883174D02*
X12345705Y-12902222D01*
M02*
